<svg width="376" height="184" viewBox="0 0 376 184" fill="none" xmlns="http://www.w3.org/2000/svg">
<rect width="376" height="184" fill="white"/>
<g filter="url(#filter0_dii_16593_1921)">
<path d="M188.5 73.3333C187.027 73.3333 185.833 74.5272 185.833 76C185.833 77.4728 187.027 78.6667 188.5 78.6667C189.973 78.6667 191.167 77.4728 191.167 76C191.167 74.5272 189.973 73.3333 188.5 73.3333ZM188.5 36L188 36L188 76L188.5 76L189 76L189 36L188.5 36Z" fill="#D5D7DA"/>
</g>
<g filter="url(#filter1_dii_16593_1921)">
<path d="M93.5 44C93.5 39.5817 97.0817 36 101.5 36H125.5C129.918 36 133.5 39.5817 133.5 44V68C133.5 72.4183 129.918 76 125.5 76H101.5C97.0817 76 93.5 72.4183 93.5 68V44Z" fill="white"/>
<path d="M101.5 36.5H125.5C129.642 36.5 133 39.8579 133 44V68C133 72.1421 129.642 75.5 125.5 75.5H101.5C97.3579 75.5 94 72.1421 94 68V44C94 39.8579 97.3579 36.5 101.5 36.5Z" stroke="#D5D7DA"/>
<path d="M108.917 51.4171C106.393 51.4171 104.333 53.4764 104.333 56.0004C104.333 58.5244 106.393 60.5837 108.917 60.5837H110.792C110.875 60.5849 110.957 60.5696 111.034 60.5387C111.111 60.5078 111.181 60.462 111.24 60.4038C111.298 60.3457 111.345 60.2764 111.377 60.2C111.409 60.1236 111.426 60.0415 111.426 59.9587C111.426 59.8759 111.409 59.7939 111.377 59.7175C111.345 59.6411 111.298 59.5718 111.24 59.5136C111.181 59.4555 111.111 59.4096 111.034 59.3787C110.957 59.3479 110.875 59.3326 110.792 59.3337H108.917C107.068 59.3337 105.583 57.8489 105.583 56.0004C105.583 54.1519 107.068 52.6671 108.917 52.6671H110.792C110.875 52.6682 110.957 52.6529 111.034 52.622C111.111 52.5912 111.181 52.5453 111.24 52.4872C111.298 52.429 111.345 52.3597 111.377 52.2833C111.409 52.2069 111.426 52.1249 111.426 52.0421C111.426 51.9592 111.409 51.8772 111.377 51.8008C111.345 51.7244 111.298 51.6551 111.24 51.597C111.181 51.5388 111.111 51.493 111.034 51.4621C110.957 51.4312 110.875 51.4159 110.792 51.4171H108.917ZM116.208 51.4171C116.126 51.4159 116.043 51.4312 115.967 51.4621C115.89 51.493 115.82 51.5388 115.761 51.597C115.702 51.6551 115.655 51.7244 115.623 51.8008C115.591 51.8772 115.575 51.9592 115.575 52.0421C115.575 52.1249 115.591 52.2069 115.623 52.2833C115.655 52.3597 115.702 52.429 115.761 52.4872C115.82 52.5453 115.89 52.5912 115.967 52.622C116.043 52.6529 116.126 52.6682 116.208 52.6671H118.083C119.932 52.6671 121.417 54.1519 121.417 56.0004C121.417 57.8489 119.932 59.3337 118.083 59.3337H116.208C116.126 59.3326 116.043 59.3479 115.967 59.3787C115.89 59.4096 115.82 59.4555 115.761 59.5136C115.702 59.5718 115.655 59.6411 115.623 59.7175C115.591 59.7939 115.575 59.8759 115.575 59.9587C115.575 60.0415 115.591 60.1236 115.623 60.2C115.655 60.2764 115.702 60.3457 115.761 60.4038C115.82 60.462 115.89 60.5078 115.967 60.5387C116.043 60.5696 116.126 60.5849 116.208 60.5837H118.083C120.607 60.5837 122.667 58.5244 122.667 56.0004C122.667 53.4764 120.607 51.4171 118.083 51.4171H116.208ZM108.292 55.3754C108.209 55.3742 108.127 55.3895 108.05 55.4204C107.973 55.4513 107.903 55.4971 107.844 55.5553C107.785 55.6134 107.738 55.6827 107.706 55.7591C107.674 55.8356 107.658 55.9176 107.658 56.0004C107.658 56.0832 107.674 56.1652 107.706 56.2416C107.738 56.318 107.785 56.3873 107.844 56.4455C107.903 56.5036 107.973 56.5495 108.05 56.5804C108.127 56.6113 108.209 56.6266 108.292 56.6254H118.708C118.791 56.6266 118.874 56.6113 118.95 56.5804C119.027 56.5495 119.097 56.5036 119.156 56.4455C119.215 56.3873 119.262 56.318 119.294 56.2416C119.326 56.1652 119.342 56.0832 119.342 56.0004C119.342 55.9176 119.326 55.8356 119.294 55.7591C119.262 55.6827 119.215 55.6134 119.156 55.5553C119.097 55.4971 119.027 55.4513 118.95 55.4204C118.874 55.3895 118.791 55.3742 118.708 55.3754H108.292Z" fill="#181D27"/>
</g>
<g filter="url(#filter2_dii_16593_1921)">
<path d="M168 24C168 19.5817 171.582 16 176 16H200C204.418 16 208 19.5817 208 24V48C208 52.4183 204.418 56 200 56H176C171.582 56 168 52.4183 168 48V24Z" fill="white"/>
<path d="M176 16.5H200C204.142 16.5 207.5 19.8579 207.5 24V48C207.5 52.1421 204.142 55.5 200 55.5H176C171.858 55.5 168.5 52.1421 168.5 48V24C168.5 19.8579 171.858 16.5 176 16.5Z" stroke="#D5D7DA"/>
<path d="M182.365 28.4913C182.2 28.4939 182.042 28.5621 181.926 28.6809C181.811 28.7998 181.748 28.9596 181.75 29.1252V29.4394C181.739 29.5065 181.739 29.5749 181.75 29.642V29.9586C181.748 30.1072 181.8 30.2515 181.895 30.3656C181.99 30.4797 182.123 30.5562 182.269 30.5812C182.416 30.6063 182.567 30.5784 182.694 30.5025C182.822 30.4265 182.919 30.3076 182.967 30.1669H187.375V42.2502H186.542C186.459 42.2491 186.377 42.2644 186.3 42.2952C186.223 42.3261 186.153 42.372 186.094 42.4301C186.035 42.4883 185.988 42.5576 185.956 42.634C185.924 42.7104 185.908 42.7924 185.908 42.8752C185.908 42.9581 185.924 43.0401 185.956 43.1165C185.988 43.1929 186.035 43.2622 186.094 43.3203C186.153 43.3785 186.223 43.4243 186.3 43.4552C186.377 43.4861 186.459 43.5014 186.542 43.5002H187.897C187.965 43.5113 188.033 43.5113 188.1 43.5002H189.458C189.541 43.5014 189.623 43.4861 189.7 43.4552C189.777 43.4243 189.847 43.3785 189.906 43.3203C189.965 43.2622 190.012 43.1929 190.044 43.1165C190.076 43.0401 190.092 42.9581 190.092 42.8752C190.092 42.7924 190.076 42.7104 190.044 42.634C190.012 42.5576 189.965 42.4883 189.906 42.4301C189.847 42.372 189.777 42.3261 189.7 42.2952C189.623 42.2644 189.541 42.2491 189.458 42.2502H188.625V30.1669H193.033C193.081 30.3076 193.178 30.4265 193.306 30.5025C193.433 30.5784 193.584 30.6063 193.73 30.5812C193.877 30.5562 194.01 30.4797 194.105 30.3656C194.2 30.2515 194.252 30.1072 194.25 29.9586V29.6444C194.261 29.5773 194.261 29.5089 194.25 29.4418V29.1252C194.252 28.9766 194.2 28.8323 194.105 28.7182C194.01 28.6041 193.877 28.5276 193.73 28.5026C193.584 28.4775 193.433 28.5054 193.306 28.5813C193.178 28.6573 193.081 28.7762 193.033 28.9169H188.103C188.035 28.9059 187.967 28.9059 187.9 28.9169H182.967C182.924 28.7914 182.843 28.6826 182.735 28.6061C182.627 28.5296 182.498 28.4894 182.365 28.4913Z" fill="#181D27"/>
</g>
<g filter="url(#filter3_dii_16593_1921)">
<path d="M242.5 44C242.5 39.5817 246.082 36 250.5 36H274.5C278.918 36 282.5 39.5817 282.5 44V68C282.5 72.4183 278.918 76 274.5 76H250.5C246.082 76 242.5 72.4183 242.5 68V44Z" fill="white"/>
<path d="M250.5 36.5H274.5C278.642 36.5 282 39.8579 282 44V68C282 72.1421 278.642 75.5 274.5 75.5H250.5C246.358 75.5 243 72.1421 243 68V44C243 39.8579 246.358 36.5 250.5 36.5Z" stroke="#D5D7DA"/>
<path d="M264.368 49.3253C264.235 49.3272 264.106 49.3718 264 49.4523C263.894 49.5328 263.816 49.6451 263.778 49.7728L260.028 61.8562C260.001 61.9354 259.989 62.0193 259.995 62.103C260 62.1866 260.023 62.2684 260.06 62.3432C260.098 62.4181 260.151 62.4846 260.215 62.5388C260.279 62.593 260.353 62.6338 260.433 62.6587C260.513 62.6836 260.597 62.6921 260.681 62.6838C260.764 62.6755 260.845 62.6504 260.919 62.6102C260.992 62.5699 261.057 62.5153 261.109 62.4495C261.161 62.3837 261.199 62.3081 261.221 62.2273L264.971 50.1439C265.002 50.0494 265.01 49.9489 264.994 49.8507C264.978 49.7526 264.939 49.6596 264.88 49.5796C264.821 49.4995 264.744 49.4347 264.655 49.3904C264.566 49.3462 264.468 49.3239 264.368 49.3253ZM258.129 51.4102C257.966 51.4109 257.811 51.4748 257.694 51.5884L253.528 55.5468C253.466 55.6052 253.417 55.6755 253.384 55.7534C253.35 55.8313 253.333 55.9152 253.333 56.0001C253.333 56.0849 253.35 56.1688 253.384 56.2467C253.417 56.3247 253.466 56.395 253.528 56.4533L257.694 60.4117C257.754 60.4682 257.824 60.5125 257.901 60.542C257.977 60.5714 258.059 60.5855 258.141 60.5834C258.223 60.5813 258.304 60.563 258.379 60.5297C258.454 60.4963 258.522 60.4485 258.578 60.389C258.635 60.3294 258.679 60.2593 258.708 60.1827C258.738 60.1061 258.752 60.0244 258.75 59.9423C258.748 59.8602 258.729 59.7794 258.696 59.7044C258.663 59.6293 258.615 59.5616 258.555 59.5051L254.866 56.0001L258.555 52.495C258.648 52.4096 258.713 52.2982 258.741 52.1753C258.769 52.0524 258.76 51.9239 258.714 51.8066C258.667 51.6893 258.587 51.5886 258.483 51.5179C258.378 51.4472 258.255 51.4096 258.129 51.4102ZM266.852 51.411C266.728 51.4143 266.607 51.4546 266.506 51.5267C266.405 51.5988 266.327 51.6995 266.283 51.8158C266.24 51.9322 266.232 52.059 266.26 52.18C266.289 52.301 266.353 52.4106 266.444 52.495L270.134 56.0001L266.444 59.5051C266.385 59.5616 266.337 59.6293 266.304 59.7044C266.27 59.7794 266.252 59.8602 266.25 59.9423C266.248 60.0244 266.262 60.1061 266.291 60.1827C266.321 60.2593 266.365 60.3294 266.421 60.389C266.478 60.4485 266.546 60.4963 266.621 60.5297C266.696 60.563 266.777 60.5813 266.859 60.5834C266.941 60.5855 267.022 60.5714 267.099 60.542C267.176 60.5125 267.246 60.4682 267.305 60.4117L271.472 56.4533C271.534 56.395 271.582 56.3247 271.616 56.2467C271.649 56.1688 271.667 56.0849 271.667 56.0001C271.667 55.9152 271.649 55.8313 271.616 55.7534C271.582 55.6755 271.534 55.6052 271.472 55.5468L267.305 51.5884C267.246 51.5301 267.175 51.4843 267.097 51.4538C267.019 51.4233 266.936 51.4088 266.852 51.411Z" fill="#181D27"/>
</g>
<g filter="url(#filter4_dii_16593_1921)">
<path d="M44 98C44 93.5817 47.5817 90 52 90H76C80.4183 90 84 93.5817 84 98V122C84 126.418 80.4183 130 76 130H52C47.5817 130 44 126.418 44 122V98Z" fill="white"/>
<path d="M52 90.5H76C80.1421 90.5 83.5 93.8579 83.5 98V122C83.5 126.142 80.1421 129.5 76 129.5H52C47.8579 129.5 44.5 126.142 44.5 122V98C44.5 93.8579 47.8579 90.5 52 90.5Z" stroke="#D5D7DA"/>
<path d="M58.7917 102.5C57.5334 102.5 56.5 103.533 56.5 104.792V115.208C56.5 116.467 57.5334 117.5 58.7917 117.5H69.2083C70.4666 117.5 71.5 116.467 71.5 115.208V104.792C71.5 103.533 70.4666 102.5 69.2083 102.5H58.7917ZM58.7917 103.75H69.2083C69.7909 103.75 70.25 104.209 70.25 104.792V115.208C70.25 115.264 70.2417 115.317 70.2337 115.369L65.1727 110.473C64.8483 110.159 64.4239 110.002 64 110.002C63.5761 110.002 63.1525 110.159 62.8281 110.473L57.7663 115.369C57.7583 115.317 57.75 115.264 57.75 115.208V104.792C57.75 104.209 58.2091 103.75 58.7917 103.75ZM66.7083 105.417C66.1354 105.417 65.6266 105.654 65.3037 106.017C64.9808 106.38 64.8333 106.84 64.8333 107.292C64.8333 107.743 64.9808 108.203 65.3037 108.566C65.6266 108.929 66.1354 109.167 66.7083 109.167C67.2812 109.167 67.7901 108.929 68.113 108.566C68.4358 108.203 68.5833 107.743 68.5833 107.292C68.5833 106.84 68.4358 106.38 68.113 106.017C67.7901 105.654 67.2812 105.417 66.7083 105.417ZM66.7083 106.667C66.9687 106.667 67.0849 106.742 67.1787 106.847C67.2725 106.953 67.3333 107.118 67.3333 107.292C67.3333 107.465 67.2725 107.63 67.1787 107.736C67.0849 107.842 66.9687 107.917 66.7083 107.917C66.4479 107.917 66.3317 107.842 66.238 107.736C66.1442 107.63 66.0833 107.465 66.0833 107.292C66.0833 107.118 66.1442 106.953 66.238 106.847C66.3317 106.742 66.4479 106.667 66.7083 106.667ZM64.0008 111.245C64.109 111.245 64.2167 111.287 64.3035 111.371L69.3337 116.238C69.2922 116.243 69.2513 116.25 69.2083 116.25H58.7917C58.7487 116.25 58.7078 116.243 58.6663 116.238L63.6973 111.371C63.7841 111.287 63.8927 111.245 64.0008 111.245Z" fill="#181D27"/>
</g>
<g filter="url(#filter5_dii_16593_1921)">
<path d="M292 98C292 93.5817 295.582 90 300 90H324C328.418 90 332 93.5817 332 98V122C332 126.418 328.418 130 324 130H300C295.582 130 292 126.418 292 122V98Z" fill="white"/>
<path d="M300 90.5H324C328.142 90.5 331.5 93.8579 331.5 98V122C331.5 126.142 328.142 129.5 324 129.5H300C295.858 129.5 292.5 126.142 292.5 122V98C292.5 93.8579 295.858 90.5 300 90.5Z" stroke="#D5D7DA"/>
<path d="M307.208 101.667C306.18 101.667 305.333 102.514 305.333 103.542V116.459C305.333 117.487 306.18 118.334 307.208 118.334H316.792C317.82 118.334 318.667 117.487 318.667 116.459V107.709C318.667 107.543 318.601 107.384 318.484 107.267L318.477 107.26L313.067 101.85C312.95 101.733 312.791 101.667 312.625 101.667H307.208ZM307.208 102.917H312V106.459C312 107.487 312.847 108.334 313.875 108.334H317.417V116.459C317.417 116.811 317.145 117.084 316.792 117.084H307.208C306.856 117.084 306.583 116.811 306.583 116.459V103.542C306.583 103.189 306.856 102.917 307.208 102.917ZM313.25 103.801L316.533 107.084H313.875C313.522 107.084 313.25 106.811 313.25 106.459V103.801ZM309.292 110.417C309.209 110.416 309.127 110.431 309.05 110.462C308.973 110.493 308.903 110.539 308.844 110.597C308.785 110.655 308.738 110.724 308.706 110.801C308.674 110.877 308.658 110.959 308.658 111.042C308.658 111.125 308.674 111.207 308.706 111.283C308.738 111.36 308.785 111.429 308.844 111.487C308.903 111.545 308.973 111.591 309.05 111.622C309.127 111.653 309.209 111.668 309.292 111.667H314.708C314.791 111.668 314.874 111.653 314.95 111.622C315.027 111.591 315.097 111.545 315.156 111.487C315.215 111.429 315.262 111.36 315.294 111.283C315.326 111.207 315.342 111.125 315.342 111.042C315.342 110.959 315.326 110.877 315.294 110.801C315.262 110.724 315.215 110.655 315.156 110.597C315.097 110.539 315.027 110.493 314.95 110.462C314.874 110.431 314.791 110.416 314.708 110.417H309.292ZM309.292 113.334C309.209 113.332 309.127 113.348 309.05 113.379C308.973 113.41 308.903 113.455 308.844 113.514C308.785 113.572 308.738 113.641 308.706 113.717C308.674 113.794 308.658 113.876 308.658 113.959C308.658 114.041 308.674 114.123 308.706 114.2C308.738 114.276 308.785 114.346 308.844 114.404C308.903 114.462 308.973 114.508 309.05 114.539C309.127 114.57 309.209 114.585 309.292 114.584H313.042C313.125 114.585 313.207 114.57 313.284 114.539C313.361 114.508 313.431 114.462 313.49 114.404C313.548 114.346 313.595 114.276 313.627 114.2C313.659 114.123 313.676 114.041 313.676 113.959C313.676 113.876 313.659 113.794 313.627 113.717C313.595 113.641 313.548 113.572 313.49 113.514C313.431 113.455 313.361 113.41 313.284 113.379C313.207 113.348 313.125 113.332 313.042 113.334H309.292Z" fill="#181D27"/>
</g>
<path opacity="0.6" d="M132.905 108V94.9091H134.49V100.739H141.47V94.9091H143.055V108H141.47V102.145H134.49V108H132.905ZM150.141 108.205C149.195 108.205 148.379 107.996 147.693 107.578C147.011 107.156 146.484 106.568 146.114 105.814C145.747 105.055 145.564 104.173 145.564 103.168C145.564 102.162 145.747 101.276 146.114 100.509C146.484 99.7372 147 99.1364 147.661 98.706C148.325 98.2713 149.101 98.054 149.987 98.054C150.499 98.054 151.004 98.1392 151.502 98.3097C152.001 98.4801 152.455 98.7571 152.864 99.1406C153.273 99.5199 153.599 100.023 153.842 100.649C154.085 101.276 154.206 102.047 154.206 102.963V103.602H146.638V102.298H152.672C152.672 101.744 152.561 101.25 152.34 100.815C152.122 100.381 151.811 100.038 151.406 99.7862C151.006 99.5348 150.533 99.4091 149.987 99.4091C149.386 99.4091 148.867 99.5582 148.428 99.8565C147.993 100.151 147.658 100.534 147.424 101.007C147.19 101.48 147.073 101.987 147.073 102.528V103.398C147.073 104.139 147.2 104.768 147.456 105.283C147.716 105.795 148.076 106.185 148.536 106.453C148.997 106.717 149.531 106.849 150.141 106.849C150.537 106.849 150.895 106.794 151.215 106.683C151.538 106.568 151.818 106.398 152.052 106.172C152.286 105.942 152.467 105.656 152.595 105.315L154.053 105.724C153.899 106.219 153.641 106.653 153.279 107.028C152.917 107.399 152.47 107.689 151.937 107.898C151.404 108.102 150.805 108.205 150.141 108.205ZM158.009 94.9091V108H156.501V94.9091H158.009ZM162.281 94.9091V108H160.772V94.9091H162.281ZM169.032 108.205C168.146 108.205 167.368 107.994 166.699 107.572C166.035 107.15 165.515 106.56 165.14 105.801C164.769 105.043 164.584 104.156 164.584 103.142C164.584 102.119 164.769 101.227 165.14 100.464C165.515 99.701 166.035 99.1087 166.699 98.6868C167.368 98.2649 168.146 98.054 169.032 98.054C169.919 98.054 170.694 98.2649 171.359 98.6868C172.028 99.1087 172.548 99.701 172.919 100.464C173.294 101.227 173.481 102.119 173.481 103.142C173.481 104.156 173.294 105.043 172.919 105.801C172.548 106.56 172.028 107.15 171.359 107.572C170.694 107.994 169.919 108.205 169.032 108.205ZM169.032 106.849C169.706 106.849 170.26 106.677 170.694 106.332C171.129 105.987 171.451 105.533 171.66 104.97C171.868 104.408 171.973 103.798 171.973 103.142C171.973 102.486 171.868 101.874 171.66 101.308C171.451 100.741 171.129 100.283 170.694 99.9332C170.26 99.5838 169.706 99.4091 169.032 99.4091C168.359 99.4091 167.805 99.5838 167.37 99.9332C166.936 100.283 166.614 100.741 166.405 101.308C166.196 101.874 166.092 102.486 166.092 103.142C166.092 103.798 166.196 104.408 166.405 104.97C166.614 105.533 166.936 105.987 167.37 106.332C167.805 106.677 168.359 106.849 169.032 106.849ZM191.585 99H190C189.906 98.544 189.742 98.1435 189.508 97.7983C189.278 97.4531 188.996 97.1634 188.664 96.929C188.336 96.6903 187.972 96.5114 187.571 96.392C187.17 96.2727 186.753 96.2131 186.318 96.2131C185.525 96.2131 184.807 96.4134 184.164 96.8139C183.525 97.2145 183.016 97.8047 182.636 98.5845C182.261 99.3643 182.074 100.321 182.074 101.455C182.074 102.588 182.261 103.545 182.636 104.325C183.016 105.104 183.525 105.695 184.164 106.095C184.807 106.496 185.525 106.696 186.318 106.696C186.753 106.696 187.17 106.636 187.571 106.517C187.972 106.398 188.336 106.221 188.664 105.987C188.996 105.748 189.278 105.456 189.508 105.111C189.742 104.761 189.906 104.361 190 103.909H191.585C191.466 104.578 191.248 105.177 190.933 105.705C190.618 106.234 190.226 106.683 189.757 107.054C189.288 107.42 188.762 107.7 188.178 107.891C187.599 108.083 186.979 108.179 186.318 108.179C185.202 108.179 184.209 107.906 183.339 107.361C182.47 106.815 181.786 106.04 181.288 105.034C180.789 104.028 180.54 102.835 180.54 101.455C180.54 100.074 180.789 98.8807 181.288 97.875C181.786 96.8693 182.47 96.0938 183.339 95.5483C184.209 95.0028 185.202 94.7301 186.318 94.7301C186.979 94.7301 187.599 94.826 188.178 95.0178C188.762 95.2095 189.288 95.4908 189.757 95.8615C190.226 96.228 190.618 96.6754 190.933 97.2038C191.248 97.728 191.466 98.3267 191.585 99ZM195.451 94.9091V108H193.942V94.9091H195.451ZM198.214 108V98.1818H199.722V108H198.214ZM198.981 96.5455C198.687 96.5455 198.433 96.4453 198.22 96.245C198.011 96.0447 197.907 95.804 197.907 95.5227C197.907 95.2415 198.011 95.0007 198.22 94.8004C198.433 94.6001 198.687 94.5 198.981 94.5C199.275 94.5 199.526 94.6001 199.735 94.8004C199.948 95.0007 200.055 95.2415 200.055 95.5227C200.055 95.804 199.948 96.0447 199.735 96.245C199.526 96.4453 199.275 96.5455 198.981 96.5455ZM202.485 111.682V98.1818H203.943V99.7415H204.122C204.232 99.571 204.386 99.3537 204.582 99.0895C204.782 98.821 205.068 98.5824 205.438 98.3736C205.813 98.1605 206.32 98.054 206.96 98.054C207.786 98.054 208.515 98.2607 209.146 98.674C209.776 99.0874 210.269 99.6733 210.622 100.432C210.976 101.19 211.153 102.085 211.153 103.116C211.153 104.156 210.976 105.058 210.622 105.82C210.269 106.579 209.778 107.167 209.152 107.585C208.526 107.998 207.803 108.205 206.985 108.205C206.354 108.205 205.85 108.1 205.47 107.891C205.091 107.678 204.799 107.437 204.595 107.169C204.39 106.896 204.232 106.67 204.122 106.491H203.994V111.682H202.485ZM203.968 103.091C203.968 103.832 204.077 104.487 204.294 105.053C204.511 105.616 204.829 106.057 205.247 106.376C205.664 106.692 206.176 106.849 206.781 106.849C207.411 106.849 207.938 106.683 208.359 106.351C208.786 106.014 209.105 105.562 209.318 104.996C209.536 104.425 209.644 103.79 209.644 103.091C209.644 102.401 209.538 101.778 209.325 101.224C209.116 100.666 208.798 100.225 208.372 99.9013C207.95 99.5732 207.42 99.4091 206.781 99.4091C206.167 99.4091 205.651 99.5646 205.234 99.8757C204.816 100.183 204.501 100.613 204.288 101.167C204.075 101.717 203.968 102.358 203.968 103.091ZM213.454 111.682V98.1818H214.911V99.7415H215.09C215.201 99.571 215.354 99.3537 215.551 99.0895C215.751 98.821 216.036 98.5824 216.407 98.3736C216.782 98.1605 217.289 98.054 217.928 98.054C218.755 98.054 219.484 98.2607 220.114 98.674C220.745 99.0874 221.237 99.6733 221.591 100.432C221.945 101.19 222.122 102.085 222.122 103.116C222.122 104.156 221.945 105.058 221.591 105.82C221.237 106.579 220.747 107.167 220.121 107.585C219.494 107.998 218.772 108.205 217.954 108.205C217.323 108.205 216.818 108.1 216.439 107.891C216.06 107.678 215.768 107.437 215.563 107.169C215.359 106.896 215.201 106.67 215.09 106.491H214.962V111.682H213.454ZM214.937 103.091C214.937 103.832 215.046 104.487 215.263 105.053C215.48 105.616 215.798 106.057 216.215 106.376C216.633 106.692 217.144 106.849 217.749 106.849C218.38 106.849 218.906 106.683 219.328 106.351C219.754 106.014 220.074 105.562 220.287 104.996C220.504 104.425 220.613 103.79 220.613 103.091C220.613 102.401 220.506 101.778 220.293 101.224C220.085 100.666 219.767 100.225 219.341 99.9013C218.919 99.5732 218.389 99.4091 217.749 99.4091C217.136 99.4091 216.62 99.5646 216.203 99.8757C215.785 100.183 215.47 100.613 215.256 101.167C215.043 101.717 214.937 102.358 214.937 103.091ZM228.411 108.205C227.525 108.205 226.747 107.994 226.078 107.572C225.413 107.15 224.894 106.56 224.519 105.801C224.148 105.043 223.962 104.156 223.962 103.142C223.962 102.119 224.148 101.227 224.519 100.464C224.894 99.701 225.413 99.1087 226.078 98.6868C226.747 98.2649 227.525 98.054 228.411 98.054C229.298 98.054 230.073 98.2649 230.738 98.6868C231.407 99.1087 231.927 99.701 232.298 100.464C232.673 101.227 232.86 102.119 232.86 103.142C232.86 104.156 232.673 105.043 232.298 105.801C231.927 106.56 231.407 107.15 230.738 107.572C230.073 107.994 229.298 108.205 228.411 108.205ZM228.411 106.849C229.085 106.849 229.639 106.677 230.073 106.332C230.508 105.987 230.83 105.533 231.038 104.97C231.247 104.408 231.352 103.798 231.352 103.142C231.352 102.486 231.247 101.874 231.038 101.308C230.83 100.741 230.508 100.283 230.073 99.9332C229.639 99.5838 229.085 99.4091 228.411 99.4091C227.738 99.4091 227.184 99.5838 226.749 99.9332C226.315 100.283 225.993 100.741 225.784 101.308C225.575 101.874 225.471 102.486 225.471 103.142C225.471 103.798 225.575 104.408 225.784 104.97C225.993 105.533 226.315 105.987 226.749 106.332C227.184 106.677 227.738 106.849 228.411 106.849ZM237.157 94.9091L237.029 104.318H235.546L235.419 94.9091H237.157ZM236.288 108.102C235.973 108.102 235.702 107.989 235.476 107.763C235.25 107.538 235.137 107.267 235.137 106.952C235.137 106.636 235.25 106.366 235.476 106.14C235.702 105.914 235.973 105.801 236.288 105.801C236.603 105.801 236.874 105.914 237.1 106.14C237.326 106.366 237.438 106.636 237.438 106.952C237.438 107.161 237.385 107.352 237.279 107.527C237.176 107.702 237.038 107.842 236.863 107.949C236.693 108.051 236.501 108.102 236.288 108.102ZM242.372 90.6903V112.219H241.093V90.6903H242.372Z" fill="#181D27"/>
<g filter="url(#filter6_dii_16593_1921)">
<path d="M140 133C140 128.582 143.582 125 148 125H176C180.418 125 184 128.582 184 133V161C184 165.418 180.418 169 176 169H148C143.582 169 140 165.418 140 161V133Z" fill="#FDC57A"/>
<path d="M148 126H176C179.866 126 183 129.134 183 133V161C183 164.866 179.866 168 176 168H148C144.134 168 141 164.866 141 161V133C141 129.134 144.134 126 148 126Z" stroke="url(#paint0_linear_16593_1921)" stroke-width="2"/>
<path d="M158.341 153.256C157.864 153.256 157.428 153.14 157.034 152.909C156.64 152.674 156.326 152.36 156.091 151.966C155.856 151.568 155.739 151.133 155.739 150.659C155.739 150.178 155.856 149.741 156.091 149.347C156.326 148.953 156.64 148.638 157.034 148.403C157.428 148.169 157.864 148.051 158.341 148.051H159.523V146.301H158.341C157.864 146.301 157.428 146.186 157.034 145.955C156.64 145.72 156.326 145.407 156.091 145.017C155.856 144.623 155.739 144.186 155.739 143.705C155.739 143.227 155.856 142.792 156.091 142.398C156.326 142.004 156.64 141.691 157.034 141.46C157.428 141.225 157.864 141.108 158.341 141.108C158.818 141.108 159.254 141.225 159.648 141.46C160.042 141.691 160.356 142.004 160.591 142.398C160.83 142.792 160.949 143.227 160.949 143.705V144.881H162.693V143.705C162.693 143.227 162.809 142.792 163.04 142.398C163.275 142.004 163.589 141.691 163.983 141.46C164.377 141.225 164.814 141.108 165.295 141.108C165.773 141.108 166.208 141.225 166.602 141.46C166.996 141.691 167.309 142.004 167.54 142.398C167.775 142.792 167.892 143.227 167.892 143.705C167.892 144.186 167.775 144.623 167.54 145.017C167.305 145.407 166.991 145.72 166.597 145.955C166.206 146.186 165.773 146.301 165.295 146.301H164.119V148.051H165.295C165.773 148.051 166.206 148.169 166.597 148.403C166.991 148.638 167.305 148.953 167.54 149.347C167.775 149.741 167.892 150.178 167.892 150.659C167.892 151.133 167.775 151.568 167.54 151.966C167.305 152.36 166.991 152.674 166.597 152.909C166.206 153.14 165.773 153.256 165.295 153.256C164.814 153.256 164.377 153.14 163.983 152.909C163.589 152.674 163.275 152.36 163.04 151.966C162.809 151.568 162.693 151.133 162.693 150.659V149.472H160.949V150.659C160.949 151.133 160.83 151.568 160.591 151.966C160.356 152.36 160.042 152.674 159.648 152.909C159.254 153.14 158.818 153.256 158.341 153.256ZM158.341 151.835C158.557 151.835 158.754 151.782 158.932 151.676C159.114 151.57 159.258 151.428 159.364 151.25C159.47 151.072 159.523 150.875 159.523 150.659V149.472H158.341C158.125 149.472 157.928 149.527 157.75 149.636C157.572 149.742 157.43 149.884 157.324 150.062C157.218 150.241 157.165 150.439 157.165 150.659C157.165 150.875 157.216 151.072 157.318 151.25C157.424 151.428 157.566 151.57 157.744 151.676C157.926 151.782 158.125 151.835 158.341 151.835ZM158.341 144.881H159.523V143.705C159.523 143.485 159.47 143.288 159.364 143.114C159.258 142.936 159.114 142.794 158.932 142.688C158.754 142.581 158.557 142.528 158.341 142.528C158.125 142.528 157.928 142.581 157.75 142.688C157.572 142.794 157.43 142.936 157.324 143.114C157.218 143.288 157.165 143.485 157.165 143.705C157.165 143.92 157.216 144.119 157.318 144.301C157.424 144.479 157.566 144.621 157.744 144.727C157.926 144.83 158.125 144.881 158.341 144.881ZM164.119 144.881H165.295C165.511 144.881 165.708 144.83 165.886 144.727C166.064 144.621 166.205 144.479 166.307 144.301C166.413 144.123 166.466 143.924 166.466 143.705C166.466 143.485 166.413 143.288 166.307 143.114C166.205 142.936 166.064 142.794 165.886 142.688C165.708 142.581 165.511 142.528 165.295 142.528C165.076 142.528 164.877 142.581 164.699 142.688C164.521 142.794 164.379 142.936 164.273 143.114C164.17 143.288 164.119 143.485 164.119 143.705V144.881ZM165.295 151.835C165.511 151.835 165.708 151.782 165.886 151.676C166.064 151.57 166.205 151.428 166.307 151.25C166.413 151.072 166.466 150.875 166.466 150.659C166.466 150.439 166.413 150.241 166.307 150.062C166.205 149.884 166.064 149.742 165.886 149.636C165.708 149.527 165.511 149.472 165.295 149.472H164.119V150.659C164.119 150.875 164.17 151.072 164.273 151.25C164.379 151.428 164.521 151.57 164.699 151.676C164.877 151.782 165.076 151.835 165.295 151.835ZM160.949 148.051H162.693V146.301H160.949V148.051Z" fill="#181D27"/>
</g>
<g filter="url(#filter7_dii_16593_1921)">
<path d="M192 133C192 128.582 195.582 125 200 125H228C232.418 125 236 128.582 236 133V161C236 165.418 232.418 169 228 169H200C195.582 169 192 165.418 192 161V133Z" fill="#FDC57A"/>
<path d="M200 126H228C231.866 126 235 129.134 235 133V161C235 164.866 231.866 168 228 168H200C196.134 168 193 164.866 193 161V133C193 129.134 196.134 126 200 126Z" stroke="url(#paint1_linear_16593_1921)" stroke-width="2"/>
<path d="M219.108 145.29H216.983C216.922 144.941 216.811 144.633 216.648 144.364C216.485 144.091 216.282 143.86 216.04 143.67C215.797 143.481 215.521 143.339 215.21 143.244C214.903 143.146 214.572 143.097 214.216 143.097C213.583 143.097 213.023 143.256 212.534 143.574C212.045 143.888 211.663 144.35 211.386 144.96C211.11 145.566 210.972 146.307 210.972 147.182C210.972 148.072 211.11 148.822 211.386 149.432C211.667 150.038 212.049 150.496 212.534 150.807C213.023 151.114 213.581 151.267 214.21 151.267C214.559 151.267 214.884 151.222 215.188 151.131C215.494 151.036 215.769 150.898 216.011 150.716C216.258 150.534 216.464 150.311 216.631 150.045C216.801 149.78 216.919 149.477 216.983 149.136L219.108 149.148C219.028 149.701 218.856 150.22 218.591 150.705C218.33 151.189 217.987 151.617 217.562 151.989C217.138 152.356 216.642 152.644 216.074 152.852C215.506 153.057 214.875 153.159 214.182 153.159C213.159 153.159 212.246 152.922 211.443 152.449C210.64 151.975 210.008 151.292 209.545 150.398C209.083 149.504 208.852 148.432 208.852 147.182C208.852 145.928 209.085 144.856 209.551 143.966C210.017 143.072 210.652 142.388 211.455 141.915C212.258 141.441 213.167 141.205 214.182 141.205C214.83 141.205 215.432 141.295 215.989 141.477C216.545 141.659 217.042 141.926 217.477 142.278C217.913 142.627 218.271 143.055 218.551 143.562C218.835 144.066 219.021 144.642 219.108 145.29Z" fill="#181D27"/>
</g>
<defs>
<filter id="filter0_dii_16593_1921" x="183.833" y="35" width="9.33301" height="46.667" filterUnits="userSpaceOnUse" color-interpolation-filters="sRGB">
<feFlood flood-opacity="0" result="BackgroundImageFix"/>
<feColorMatrix in="SourceAlpha" type="matrix" values="0 0 0 0 0 0 0 0 0 0 0 0 0 0 0 0 0 0 127 0" result="hardAlpha"/>
<feOffset dy="1"/>
<feGaussianBlur stdDeviation="1"/>
<feColorMatrix type="matrix" values="0 0 0 0 0.0392157 0 0 0 0 0.0496732 0 0 0 0 0.0705882 0 0 0 0.05 0"/>
<feBlend mode="normal" in2="BackgroundImageFix" result="effect1_dropShadow_16593_1921"/>
<feBlend mode="normal" in="SourceGraphic" in2="effect1_dropShadow_16593_1921" result="shape"/>
<feColorMatrix in="SourceAlpha" type="matrix" values="0 0 0 0 0 0 0 0 0 0 0 0 0 0 0 0 0 0 127 0" result="hardAlpha"/>
<feOffset dy="-2"/>
<feComposite in2="hardAlpha" operator="arithmetic" k2="-1" k3="1"/>
<feColorMatrix type="matrix" values="0 0 0 0 0.0392157 0 0 0 0 0.0496732 0 0 0 0 0.0705882 0 0 0 0.05 0"/>
<feBlend mode="normal" in2="shape" result="effect2_innerShadow_16593_1921"/>
<feColorMatrix in="SourceAlpha" type="matrix" values="0 0 0 0 0 0 0 0 0 0 0 0 0 0 0 0 0 0 127 0" result="hardAlpha"/>
<feMorphology radius="1" operator="erode" in="SourceAlpha" result="effect3_innerShadow_16593_1921"/>
<feOffset/>
<feComposite in2="hardAlpha" operator="arithmetic" k2="-1" k3="1"/>
<feColorMatrix type="matrix" values="0 0 0 0 0.0392157 0 0 0 0 0.0496732 0 0 0 0 0.0705882 0 0 0 0.18 0"/>
<feBlend mode="normal" in2="effect2_innerShadow_16593_1921" result="effect3_innerShadow_16593_1921"/>
</filter>
<filter id="filter1_dii_16593_1921" x="91.5" y="35" width="44" height="44" filterUnits="userSpaceOnUse" color-interpolation-filters="sRGB">
<feFlood flood-opacity="0" result="BackgroundImageFix"/>
<feColorMatrix in="SourceAlpha" type="matrix" values="0 0 0 0 0 0 0 0 0 0 0 0 0 0 0 0 0 0 127 0" result="hardAlpha"/>
<feOffset dy="1"/>
<feGaussianBlur stdDeviation="1"/>
<feColorMatrix type="matrix" values="0 0 0 0 0.0392157 0 0 0 0 0.0496732 0 0 0 0 0.0705882 0 0 0 0.05 0"/>
<feBlend mode="normal" in2="BackgroundImageFix" result="effect1_dropShadow_16593_1921"/>
<feBlend mode="normal" in="SourceGraphic" in2="effect1_dropShadow_16593_1921" result="shape"/>
<feColorMatrix in="SourceAlpha" type="matrix" values="0 0 0 0 0 0 0 0 0 0 0 0 0 0 0 0 0 0 127 0" result="hardAlpha"/>
<feOffset dy="-2"/>
<feComposite in2="hardAlpha" operator="arithmetic" k2="-1" k3="1"/>
<feColorMatrix type="matrix" values="0 0 0 0 0.0392157 0 0 0 0 0.0496732 0 0 0 0 0.0705882 0 0 0 0.05 0"/>
<feBlend mode="normal" in2="shape" result="effect2_innerShadow_16593_1921"/>
<feColorMatrix in="SourceAlpha" type="matrix" values="0 0 0 0 0 0 0 0 0 0 0 0 0 0 0 0 0 0 127 0" result="hardAlpha"/>
<feMorphology radius="1" operator="erode" in="SourceAlpha" result="effect3_innerShadow_16593_1921"/>
<feOffset/>
<feComposite in2="hardAlpha" operator="arithmetic" k2="-1" k3="1"/>
<feColorMatrix type="matrix" values="0 0 0 0 0.0392157 0 0 0 0 0.0496732 0 0 0 0 0.0705882 0 0 0 0.18 0"/>
<feBlend mode="normal" in2="effect2_innerShadow_16593_1921" result="effect3_innerShadow_16593_1921"/>
</filter>
<filter id="filter2_dii_16593_1921" x="166" y="15" width="44" height="44" filterUnits="userSpaceOnUse" color-interpolation-filters="sRGB">
<feFlood flood-opacity="0" result="BackgroundImageFix"/>
<feColorMatrix in="SourceAlpha" type="matrix" values="0 0 0 0 0 0 0 0 0 0 0 0 0 0 0 0 0 0 127 0" result="hardAlpha"/>
<feOffset dy="1"/>
<feGaussianBlur stdDeviation="1"/>
<feColorMatrix type="matrix" values="0 0 0 0 0.0392157 0 0 0 0 0.0496732 0 0 0 0 0.0705882 0 0 0 0.05 0"/>
<feBlend mode="normal" in2="BackgroundImageFix" result="effect1_dropShadow_16593_1921"/>
<feBlend mode="normal" in="SourceGraphic" in2="effect1_dropShadow_16593_1921" result="shape"/>
<feColorMatrix in="SourceAlpha" type="matrix" values="0 0 0 0 0 0 0 0 0 0 0 0 0 0 0 0 0 0 127 0" result="hardAlpha"/>
<feOffset dy="-2"/>
<feComposite in2="hardAlpha" operator="arithmetic" k2="-1" k3="1"/>
<feColorMatrix type="matrix" values="0 0 0 0 0.0392157 0 0 0 0 0.0496732 0 0 0 0 0.0705882 0 0 0 0.05 0"/>
<feBlend mode="normal" in2="shape" result="effect2_innerShadow_16593_1921"/>
<feColorMatrix in="SourceAlpha" type="matrix" values="0 0 0 0 0 0 0 0 0 0 0 0 0 0 0 0 0 0 127 0" result="hardAlpha"/>
<feMorphology radius="1" operator="erode" in="SourceAlpha" result="effect3_innerShadow_16593_1921"/>
<feOffset/>
<feComposite in2="hardAlpha" operator="arithmetic" k2="-1" k3="1"/>
<feColorMatrix type="matrix" values="0 0 0 0 0.0392157 0 0 0 0 0.0496732 0 0 0 0 0.0705882 0 0 0 0.18 0"/>
<feBlend mode="normal" in2="effect2_innerShadow_16593_1921" result="effect3_innerShadow_16593_1921"/>
</filter>
<filter id="filter3_dii_16593_1921" x="240.5" y="35" width="44" height="44" filterUnits="userSpaceOnUse" color-interpolation-filters="sRGB">
<feFlood flood-opacity="0" result="BackgroundImageFix"/>
<feColorMatrix in="SourceAlpha" type="matrix" values="0 0 0 0 0 0 0 0 0 0 0 0 0 0 0 0 0 0 127 0" result="hardAlpha"/>
<feOffset dy="1"/>
<feGaussianBlur stdDeviation="1"/>
<feColorMatrix type="matrix" values="0 0 0 0 0.0392157 0 0 0 0 0.0496732 0 0 0 0 0.0705882 0 0 0 0.05 0"/>
<feBlend mode="normal" in2="BackgroundImageFix" result="effect1_dropShadow_16593_1921"/>
<feBlend mode="normal" in="SourceGraphic" in2="effect1_dropShadow_16593_1921" result="shape"/>
<feColorMatrix in="SourceAlpha" type="matrix" values="0 0 0 0 0 0 0 0 0 0 0 0 0 0 0 0 0 0 127 0" result="hardAlpha"/>
<feOffset dy="-2"/>
<feComposite in2="hardAlpha" operator="arithmetic" k2="-1" k3="1"/>
<feColorMatrix type="matrix" values="0 0 0 0 0.0392157 0 0 0 0 0.0496732 0 0 0 0 0.0705882 0 0 0 0.05 0"/>
<feBlend mode="normal" in2="shape" result="effect2_innerShadow_16593_1921"/>
<feColorMatrix in="SourceAlpha" type="matrix" values="0 0 0 0 0 0 0 0 0 0 0 0 0 0 0 0 0 0 127 0" result="hardAlpha"/>
<feMorphology radius="1" operator="erode" in="SourceAlpha" result="effect3_innerShadow_16593_1921"/>
<feOffset/>
<feComposite in2="hardAlpha" operator="arithmetic" k2="-1" k3="1"/>
<feColorMatrix type="matrix" values="0 0 0 0 0.0392157 0 0 0 0 0.0496732 0 0 0 0 0.0705882 0 0 0 0.18 0"/>
<feBlend mode="normal" in2="effect2_innerShadow_16593_1921" result="effect3_innerShadow_16593_1921"/>
</filter>
<filter id="filter4_dii_16593_1921" x="42" y="89" width="44" height="44" filterUnits="userSpaceOnUse" color-interpolation-filters="sRGB">
<feFlood flood-opacity="0" result="BackgroundImageFix"/>
<feColorMatrix in="SourceAlpha" type="matrix" values="0 0 0 0 0 0 0 0 0 0 0 0 0 0 0 0 0 0 127 0" result="hardAlpha"/>
<feOffset dy="1"/>
<feGaussianBlur stdDeviation="1"/>
<feColorMatrix type="matrix" values="0 0 0 0 0.0392157 0 0 0 0 0.0496732 0 0 0 0 0.0705882 0 0 0 0.05 0"/>
<feBlend mode="normal" in2="BackgroundImageFix" result="effect1_dropShadow_16593_1921"/>
<feBlend mode="normal" in="SourceGraphic" in2="effect1_dropShadow_16593_1921" result="shape"/>
<feColorMatrix in="SourceAlpha" type="matrix" values="0 0 0 0 0 0 0 0 0 0 0 0 0 0 0 0 0 0 127 0" result="hardAlpha"/>
<feOffset dy="-2"/>
<feComposite in2="hardAlpha" operator="arithmetic" k2="-1" k3="1"/>
<feColorMatrix type="matrix" values="0 0 0 0 0.0392157 0 0 0 0 0.0496732 0 0 0 0 0.0705882 0 0 0 0.05 0"/>
<feBlend mode="normal" in2="shape" result="effect2_innerShadow_16593_1921"/>
<feColorMatrix in="SourceAlpha" type="matrix" values="0 0 0 0 0 0 0 0 0 0 0 0 0 0 0 0 0 0 127 0" result="hardAlpha"/>
<feMorphology radius="1" operator="erode" in="SourceAlpha" result="effect3_innerShadow_16593_1921"/>
<feOffset/>
<feComposite in2="hardAlpha" operator="arithmetic" k2="-1" k3="1"/>
<feColorMatrix type="matrix" values="0 0 0 0 0.0392157 0 0 0 0 0.0496732 0 0 0 0 0.0705882 0 0 0 0.18 0"/>
<feBlend mode="normal" in2="effect2_innerShadow_16593_1921" result="effect3_innerShadow_16593_1921"/>
</filter>
<filter id="filter5_dii_16593_1921" x="290" y="89" width="44" height="44" filterUnits="userSpaceOnUse" color-interpolation-filters="sRGB">
<feFlood flood-opacity="0" result="BackgroundImageFix"/>
<feColorMatrix in="SourceAlpha" type="matrix" values="0 0 0 0 0 0 0 0 0 0 0 0 0 0 0 0 0 0 127 0" result="hardAlpha"/>
<feOffset dy="1"/>
<feGaussianBlur stdDeviation="1"/>
<feColorMatrix type="matrix" values="0 0 0 0 0.0392157 0 0 0 0 0.0496732 0 0 0 0 0.0705882 0 0 0 0.05 0"/>
<feBlend mode="normal" in2="BackgroundImageFix" result="effect1_dropShadow_16593_1921"/>
<feBlend mode="normal" in="SourceGraphic" in2="effect1_dropShadow_16593_1921" result="shape"/>
<feColorMatrix in="SourceAlpha" type="matrix" values="0 0 0 0 0 0 0 0 0 0 0 0 0 0 0 0 0 0 127 0" result="hardAlpha"/>
<feOffset dy="-2"/>
<feComposite in2="hardAlpha" operator="arithmetic" k2="-1" k3="1"/>
<feColorMatrix type="matrix" values="0 0 0 0 0.0392157 0 0 0 0 0.0496732 0 0 0 0 0.0705882 0 0 0 0.05 0"/>
<feBlend mode="normal" in2="shape" result="effect2_innerShadow_16593_1921"/>
<feColorMatrix in="SourceAlpha" type="matrix" values="0 0 0 0 0 0 0 0 0 0 0 0 0 0 0 0 0 0 127 0" result="hardAlpha"/>
<feMorphology radius="1" operator="erode" in="SourceAlpha" result="effect3_innerShadow_16593_1921"/>
<feOffset/>
<feComposite in2="hardAlpha" operator="arithmetic" k2="-1" k3="1"/>
<feColorMatrix type="matrix" values="0 0 0 0 0.0392157 0 0 0 0 0.0496732 0 0 0 0 0.0705882 0 0 0 0.18 0"/>
<feBlend mode="normal" in2="effect2_innerShadow_16593_1921" result="effect3_innerShadow_16593_1921"/>
</filter>
<filter id="filter6_dii_16593_1921" x="138" y="124" width="48" height="48" filterUnits="userSpaceOnUse" color-interpolation-filters="sRGB">
<feFlood flood-opacity="0" result="BackgroundImageFix"/>
<feColorMatrix in="SourceAlpha" type="matrix" values="0 0 0 0 0 0 0 0 0 0 0 0 0 0 0 0 0 0 127 0" result="hardAlpha"/>
<feOffset dy="1"/>
<feGaussianBlur stdDeviation="1"/>
<feColorMatrix type="matrix" values="0 0 0 0 0.0392157 0 0 0 0 0.0496732 0 0 0 0 0.0705882 0 0 0 0.05 0"/>
<feBlend mode="normal" in2="BackgroundImageFix" result="effect1_dropShadow_16593_1921"/>
<feBlend mode="normal" in="SourceGraphic" in2="effect1_dropShadow_16593_1921" result="shape"/>
<feColorMatrix in="SourceAlpha" type="matrix" values="0 0 0 0 0 0 0 0 0 0 0 0 0 0 0 0 0 0 127 0" result="hardAlpha"/>
<feOffset dy="-2"/>
<feComposite in2="hardAlpha" operator="arithmetic" k2="-1" k3="1"/>
<feColorMatrix type="matrix" values="0 0 0 0 0.0392157 0 0 0 0 0.0496732 0 0 0 0 0.0705882 0 0 0 0.05 0"/>
<feBlend mode="normal" in2="shape" result="effect2_innerShadow_16593_1921"/>
<feColorMatrix in="SourceAlpha" type="matrix" values="0 0 0 0 0 0 0 0 0 0 0 0 0 0 0 0 0 0 127 0" result="hardAlpha"/>
<feMorphology radius="1" operator="erode" in="SourceAlpha" result="effect3_innerShadow_16593_1921"/>
<feOffset/>
<feComposite in2="hardAlpha" operator="arithmetic" k2="-1" k3="1"/>
<feColorMatrix type="matrix" values="0 0 0 0 0.0392157 0 0 0 0 0.0496732 0 0 0 0 0.0705882 0 0 0 0.18 0"/>
<feBlend mode="normal" in2="effect2_innerShadow_16593_1921" result="effect3_innerShadow_16593_1921"/>
</filter>
<filter id="filter7_dii_16593_1921" x="190" y="124" width="48" height="48" filterUnits="userSpaceOnUse" color-interpolation-filters="sRGB">
<feFlood flood-opacity="0" result="BackgroundImageFix"/>
<feColorMatrix in="SourceAlpha" type="matrix" values="0 0 0 0 0 0 0 0 0 0 0 0 0 0 0 0 0 0 127 0" result="hardAlpha"/>
<feOffset dy="1"/>
<feGaussianBlur stdDeviation="1"/>
<feColorMatrix type="matrix" values="0 0 0 0 0.0392157 0 0 0 0 0.0496732 0 0 0 0 0.0705882 0 0 0 0.05 0"/>
<feBlend mode="normal" in2="BackgroundImageFix" result="effect1_dropShadow_16593_1921"/>
<feBlend mode="normal" in="SourceGraphic" in2="effect1_dropShadow_16593_1921" result="shape"/>
<feColorMatrix in="SourceAlpha" type="matrix" values="0 0 0 0 0 0 0 0 0 0 0 0 0 0 0 0 0 0 127 0" result="hardAlpha"/>
<feOffset dy="-2"/>
<feComposite in2="hardAlpha" operator="arithmetic" k2="-1" k3="1"/>
<feColorMatrix type="matrix" values="0 0 0 0 0.0392157 0 0 0 0 0.0496732 0 0 0 0 0.0705882 0 0 0 0.05 0"/>
<feBlend mode="normal" in2="shape" result="effect2_innerShadow_16593_1921"/>
<feColorMatrix in="SourceAlpha" type="matrix" values="0 0 0 0 0 0 0 0 0 0 0 0 0 0 0 0 0 0 127 0" result="hardAlpha"/>
<feMorphology radius="1" operator="erode" in="SourceAlpha" result="effect3_innerShadow_16593_1921"/>
<feOffset/>
<feComposite in2="hardAlpha" operator="arithmetic" k2="-1" k3="1"/>
<feColorMatrix type="matrix" values="0 0 0 0 0.0392157 0 0 0 0 0.0496732 0 0 0 0 0.0705882 0 0 0 0.18 0"/>
<feBlend mode="normal" in2="effect2_innerShadow_16593_1921" result="effect3_innerShadow_16593_1921"/>
</filter>
<linearGradient id="paint0_linear_16593_1921" x1="162" y1="125" x2="162" y2="169" gradientUnits="userSpaceOnUse">
<stop stop-color="white" stop-opacity="0.12"/>
<stop offset="1" stop-color="white" stop-opacity="0"/>
</linearGradient>
<linearGradient id="paint1_linear_16593_1921" x1="214" y1="125" x2="214" y2="169" gradientUnits="userSpaceOnUse">
<stop stop-color="white" stop-opacity="0.12"/>
<stop offset="1" stop-color="white" stop-opacity="0"/>
</linearGradient>
</defs>
</svg>
