<svg width="376" height="184" viewBox="0 0 376 184" fill="none" xmlns="http://www.w3.org/2000/svg">
<rect width="376" height="184" fill="white"/>
<rect x="32" y="31" width="312" height="64" rx="12" fill="#F5F5F5"/>
<g filter="url(#filter0_d_16591_1787)">
<path d="M48 51C48 46.5817 51.5817 43 56 43H80C84.4183 43 88 46.5817 88 51V75C88 79.4183 84.4183 83 80 83H56C51.5817 83 48 79.4183 48 75V51Z" fill="#FDFDFD"/>
<path d="M56 43.5H80C84.1421 43.5 87.5 46.8579 87.5 51V75C87.5 79.1421 84.1421 82.5 80 82.5H56C51.8579 82.5 48.5 79.1421 48.5 75V51C48.5 46.8579 51.8579 43.5 56 43.5Z" stroke="#D5D7DA"/>
<path d="M63.4168 58.4171C60.8928 58.4171 58.8335 60.4764 58.8335 63.0004C58.8335 65.5244 60.8928 67.5837 63.4168 67.5837H65.2918C65.3746 67.5849 65.4569 67.5696 65.5337 67.5387C65.6106 67.5078 65.6805 67.462 65.7395 67.4038C65.7985 67.3457 65.8453 67.2764 65.8773 67.2C65.9093 67.1236 65.9257 67.0415 65.9257 66.9587C65.9257 66.8759 65.9093 66.7939 65.8773 66.7175C65.8453 66.6411 65.7985 66.5718 65.7395 66.5136C65.6805 66.4555 65.6106 66.4096 65.5337 66.3787C65.4569 66.3479 65.3746 66.3326 65.2918 66.3337H63.4168C61.5683 66.3337 60.0835 64.8489 60.0835 63.0004C60.0835 61.1519 61.5683 59.6671 63.4168 59.6671H65.2918C65.3746 59.6682 65.4569 59.6529 65.5337 59.622C65.6106 59.5912 65.6805 59.5453 65.7395 59.4872C65.7985 59.429 65.8453 59.3597 65.8773 59.2833C65.9093 59.2069 65.9257 59.1249 65.9257 59.0421C65.9257 58.9592 65.9093 58.8772 65.8773 58.8008C65.8453 58.7244 65.7985 58.6551 65.7395 58.597C65.6805 58.5388 65.6106 58.493 65.5337 58.4621C65.4569 58.4312 65.3746 58.4159 65.2918 58.4171H63.4168ZM70.7085 58.4171C70.6257 58.4159 70.5434 58.4312 70.4666 58.4621C70.3897 58.493 70.3198 58.5388 70.2608 58.597C70.2018 58.6551 70.155 58.7244 70.123 58.8008C70.0911 58.8772 70.0746 58.9592 70.0746 59.0421C70.0746 59.1249 70.0911 59.2069 70.123 59.2833C70.155 59.3597 70.2018 59.429 70.2608 59.4872C70.3198 59.5453 70.3897 59.5912 70.4666 59.622C70.5434 59.6529 70.6257 59.6682 70.7085 59.6671H72.5835C74.432 59.6671 75.9168 61.1519 75.9168 63.0004C75.9168 64.8489 74.432 66.3337 72.5835 66.3337H70.7085C70.6257 66.3326 70.5434 66.3479 70.4666 66.3787C70.3897 66.4096 70.3198 66.4555 70.2608 66.5136C70.2018 66.5718 70.155 66.6411 70.123 66.7175C70.0911 66.7939 70.0746 66.8759 70.0746 66.9587C70.0746 67.0415 70.0911 67.1236 70.123 67.2C70.155 67.2764 70.2018 67.3457 70.2608 67.4038C70.3198 67.462 70.3897 67.5078 70.4666 67.5387C70.5434 67.5696 70.6257 67.5849 70.7085 67.5837H72.5835C75.1075 67.5837 77.1668 65.5244 77.1668 63.0004C77.1668 60.4764 75.1075 58.4171 72.5835 58.4171H70.7085ZM62.7918 62.3754C62.709 62.3742 62.6268 62.3895 62.5499 62.4204C62.4731 62.4513 62.4031 62.4971 62.3441 62.5553C62.2852 62.6134 62.2383 62.6827 62.2064 62.7591C62.1744 62.8356 62.1579 62.9176 62.1579 63.0004C62.1579 63.0832 62.1744 63.1652 62.2064 63.2416C62.2383 63.318 62.2852 63.3873 62.3441 63.4455C62.4031 63.5036 62.4731 63.5495 62.5499 63.5804C62.6268 63.6113 62.709 63.6266 62.7918 63.6254H73.2085C73.2913 63.6266 73.3735 63.6113 73.4504 63.5804C73.5273 63.5495 73.5972 63.5036 73.6562 63.4455C73.7152 63.3873 73.762 63.318 73.794 63.2416C73.8259 63.1652 73.8424 63.0832 73.8424 63.0004C73.8424 62.9176 73.8259 62.8356 73.794 62.7591C73.762 62.6827 73.7152 62.6134 73.6562 62.5553C73.5972 62.4971 73.5273 62.4513 73.4504 62.4204C73.3735 62.3895 73.2913 62.3742 73.2085 62.3754H62.7918Z" fill="#181D27"/>
</g>
<g filter="url(#filter1_dii_16591_1787)">
<path d="M108 51C108 46.5817 111.582 43 116 43H140C144.418 43 148 46.5817 148 51V75C148 79.4183 144.418 83 140 83H116C111.582 83 108 79.4183 108 75V51Z" fill="#FDFDFD"/>
<path d="M116 43.5H140C144.142 43.5 147.5 46.8579 147.5 51V75C147.5 79.1421 144.142 82.5 140 82.5H116C111.858 82.5 108.5 79.1421 108.5 75V51C108.5 46.8579 111.858 43.5 116 43.5Z" stroke="#D5D7DA"/>
<path d="M122.792 55.5C121.533 55.5 120.5 56.5334 120.5 57.7917V68.2083C120.5 69.4666 121.533 70.5 122.792 70.5H133.208C134.467 70.5 135.5 69.4666 135.5 68.2083V57.7917C135.5 56.5334 134.467 55.5 133.208 55.5H122.792ZM122.792 56.75H133.208C133.791 56.75 134.25 57.2091 134.25 57.7917V68.2083C134.25 68.2636 134.242 68.3167 134.234 68.3695L129.173 63.4728C128.848 63.1589 128.424 63.0024 128 63.0024C127.576 63.0024 127.153 63.1589 126.828 63.4728L121.766 68.3695C121.758 68.3167 121.75 68.2636 121.75 68.2083V57.7917C121.75 57.2091 122.209 56.75 122.792 56.75ZM130.708 58.4167C130.135 58.4167 129.627 58.654 129.304 59.0173C128.981 59.3805 128.833 59.8403 128.833 60.2917C128.833 60.7431 128.981 61.2028 129.304 61.5661C129.627 61.9293 130.135 62.1667 130.708 62.1667C131.281 62.1667 131.79 61.9293 132.113 61.5661C132.436 61.2028 132.583 60.7431 132.583 60.2917C132.583 59.8403 132.436 59.3805 132.113 59.0173C131.79 58.654 131.281 58.4167 130.708 58.4167ZM130.708 59.6667C130.969 59.6667 131.085 59.7418 131.179 59.8473C131.272 59.9528 131.333 60.1181 131.333 60.2917C131.333 60.4653 131.272 60.6305 131.179 60.736C131.085 60.8415 130.969 60.9167 130.708 60.9167C130.448 60.9167 130.332 60.8415 130.238 60.736C130.144 60.6305 130.083 60.4653 130.083 60.2917C130.083 60.1181 130.144 59.9528 130.238 59.8473C130.332 59.7418 130.448 59.6667 130.708 59.6667ZM128.001 64.2451C128.109 64.2451 128.217 64.2872 128.304 64.3713L133.334 69.2378C133.292 69.2427 133.251 69.25 133.208 69.25H122.792C122.749 69.25 122.708 69.2427 122.666 69.2378L127.697 64.3713C127.784 64.2872 127.893 64.2451 128.001 64.2451Z" fill="#181D27"/>
</g>
<g filter="url(#filter2_dii_16591_1787)">
<path d="M168 51C168 46.5817 171.582 43 176 43H200C204.418 43 208 46.5817 208 51V75C208 79.4183 204.418 83 200 83H176C171.582 83 168 79.4183 168 75V51Z" fill="#FDFDFD"/>
<path d="M176 43.5H200C204.142 43.5 207.5 46.8579 207.5 51V75C207.5 79.1421 204.142 82.5 200 82.5H176C171.858 82.5 168.5 79.1421 168.5 75V51C168.5 46.8579 171.858 43.5 176 43.5Z" stroke="#D5D7DA"/>
<path d="M182.365 55.4913C182.2 55.4939 182.042 55.5621 181.926 55.6809C181.811 55.7998 181.748 55.9596 181.75 56.1252V56.4394C181.739 56.5065 181.739 56.5749 181.75 56.642V56.9586C181.748 57.1072 181.8 57.2515 181.895 57.3656C181.99 57.4797 182.123 57.5562 182.269 57.5812C182.416 57.6063 182.567 57.5784 182.694 57.5025C182.822 57.4265 182.919 57.3076 182.967 57.1669H187.375V69.2502H186.542C186.459 69.2491 186.377 69.2644 186.3 69.2952C186.223 69.3261 186.153 69.372 186.094 69.4301C186.035 69.4883 185.988 69.5576 185.956 69.634C185.924 69.7104 185.908 69.7924 185.908 69.8752C185.908 69.9581 185.924 70.0401 185.956 70.1165C185.988 70.1929 186.035 70.2622 186.094 70.3203C186.153 70.3785 186.223 70.4243 186.3 70.4552C186.377 70.4861 186.459 70.5014 186.542 70.5002H187.897C187.965 70.5113 188.033 70.5113 188.1 70.5002H189.458C189.541 70.5014 189.623 70.4861 189.7 70.4552C189.777 70.4243 189.847 70.3785 189.906 70.3203C189.965 70.2622 190.012 70.1929 190.044 70.1165C190.076 70.0401 190.092 69.9581 190.092 69.8752C190.092 69.7924 190.076 69.7104 190.044 69.634C190.012 69.5576 189.965 69.4883 189.906 69.4301C189.847 69.372 189.777 69.3261 189.7 69.2952C189.623 69.2644 189.541 69.2491 189.458 69.2502H188.625V57.1669H193.033C193.081 57.3076 193.178 57.4265 193.306 57.5025C193.433 57.5784 193.584 57.6063 193.73 57.5812C193.877 57.5562 194.01 57.4797 194.105 57.3656C194.2 57.2515 194.252 57.1072 194.25 56.9586V56.6444C194.261 56.5773 194.261 56.5089 194.25 56.4418V56.1252C194.252 55.9766 194.2 55.8323 194.105 55.7182C194.01 55.6041 193.877 55.5276 193.73 55.5026C193.584 55.4775 193.433 55.5054 193.306 55.5813C193.178 55.6573 193.081 55.7762 193.033 55.9169H188.103C188.035 55.9059 187.967 55.9059 187.9 55.9169H182.967C182.924 55.7914 182.843 55.6826 182.735 55.6061C182.627 55.5296 182.498 55.4894 182.365 55.4913Z" fill="#181D27"/>
</g>
<g filter="url(#filter3_dii_16591_1787)">
<path d="M228 51C228 46.5817 231.582 43 236 43H260C264.418 43 268 46.5817 268 51V75C268 79.4183 264.418 83 260 83H236C231.582 83 228 79.4183 228 75V51Z" fill="#FDFDFD"/>
<path d="M236 43.5H260C264.142 43.5 267.5 46.8579 267.5 51V75C267.5 79.1421 264.142 82.5 260 82.5H236C231.858 82.5 228.5 79.1421 228.5 75V51C228.5 46.8579 231.858 43.5 236 43.5Z" stroke="#D5D7DA"/>
<path d="M249.868 56.3253C249.735 56.3272 249.606 56.3718 249.5 56.4523C249.394 56.5328 249.316 56.6451 249.278 56.7728L245.528 68.8562C245.501 68.9354 245.489 69.0193 245.495 69.103C245.5 69.1866 245.523 69.2684 245.56 69.3432C245.598 69.4181 245.651 69.4846 245.715 69.5388C245.779 69.593 245.853 69.6338 245.933 69.6587C246.013 69.6836 246.097 69.6921 246.181 69.6838C246.264 69.6755 246.345 69.6504 246.419 69.6102C246.492 69.5699 246.557 69.5153 246.609 69.4495C246.661 69.3837 246.699 69.3081 246.721 69.2273L250.471 57.1439C250.502 57.0494 250.51 56.9489 250.494 56.8507C250.478 56.7526 250.439 56.6596 250.38 56.5796C250.321 56.4995 250.244 56.4347 250.155 56.3904C250.066 56.3462 249.968 56.3239 249.868 56.3253ZM243.629 58.4102C243.466 58.4109 243.311 58.4748 243.194 58.5884L239.028 62.5468C238.966 62.6052 238.917 62.6755 238.884 62.7534C238.85 62.8313 238.833 62.9152 238.833 63.0001C238.833 63.0849 238.85 63.1688 238.884 63.2467C238.917 63.3247 238.966 63.395 239.028 63.4533L243.194 67.4117C243.254 67.4682 243.324 67.5125 243.401 67.542C243.477 67.5714 243.559 67.5855 243.641 67.5834C243.723 67.5813 243.804 67.563 243.879 67.5297C243.954 67.4963 244.022 67.4485 244.078 67.389C244.135 67.3294 244.179 67.2593 244.208 67.1827C244.238 67.1061 244.252 67.0244 244.25 66.9423C244.248 66.8602 244.229 66.7794 244.196 66.7044C244.163 66.6293 244.115 66.5616 244.055 66.5051L240.366 63.0001L244.055 59.495C244.148 59.4096 244.213 59.2982 244.241 59.1753C244.269 59.0524 244.26 58.9239 244.214 58.8066C244.167 58.6893 244.087 58.5886 243.983 58.5179C243.878 58.4472 243.755 58.4096 243.629 58.4102ZM252.352 58.411C252.228 58.4143 252.107 58.4546 252.006 58.5267C251.905 58.5988 251.827 58.6995 251.783 58.8158C251.74 58.9322 251.732 59.059 251.76 59.18C251.789 59.301 251.853 59.4106 251.944 59.495L255.634 63.0001L251.944 66.5051C251.885 66.5616 251.837 66.6293 251.804 66.7044C251.77 66.7794 251.752 66.8602 251.75 66.9423C251.748 67.0244 251.762 67.1061 251.791 67.1827C251.821 67.2593 251.865 67.3294 251.921 67.389C251.978 67.4485 252.046 67.4963 252.121 67.5297C252.196 67.563 252.277 67.5813 252.359 67.5834C252.441 67.5855 252.522 67.5714 252.599 67.542C252.676 67.5125 252.746 67.4682 252.805 67.4117L256.972 63.4533C257.034 63.395 257.082 63.3247 257.116 63.2467C257.149 63.1688 257.167 63.0849 257.167 63.0001C257.167 62.9152 257.149 62.8313 257.116 62.7534C257.082 62.6755 257.034 62.6052 256.972 62.5468L252.805 58.5884C252.746 58.5301 252.675 58.4843 252.597 58.4538C252.519 58.4233 252.436 58.4088 252.352 58.411Z" fill="#181D27"/>
</g>
<g filter="url(#filter4_dii_16591_1787)">
<path d="M288 51C288 46.5817 291.582 43 296 43H320C324.418 43 328 46.5817 328 51V75C328 79.4183 324.418 83 320 83H296C291.582 83 288 79.4183 288 75V51Z" fill="#FDFDFD"/>
<path d="M296 43.5H320C324.142 43.5 327.5 46.8579 327.5 51V75C327.5 79.1421 324.142 82.5 320 82.5H296C291.858 82.5 288.5 79.1421 288.5 75V51C288.5 46.8579 291.858 43.5 296 43.5Z" stroke="#D5D7DA"/>
<path d="M303.208 54.667C302.18 54.667 301.333 55.5139 301.333 56.542V69.4587C301.333 70.4868 302.18 71.3337 303.208 71.3337H312.792C313.82 71.3337 314.667 70.4868 314.667 69.4587V60.7087C314.667 60.5429 314.601 60.384 314.484 60.2668L314.477 60.2603L309.067 54.8501C308.95 54.7329 308.791 54.667 308.625 54.667H303.208ZM303.208 55.917H308V59.4587C308 60.4868 308.847 61.3337 309.875 61.3337H313.417V69.4587C313.417 69.8114 313.145 70.0837 312.792 70.0837H303.208C302.856 70.0837 302.583 69.8114 302.583 69.4587V56.542C302.583 56.1893 302.856 55.917 303.208 55.917ZM309.25 56.8008L312.533 60.0837H309.875C309.522 60.0837 309.25 59.8114 309.25 59.4587V56.8008ZM305.292 63.417C305.209 63.4158 305.127 63.4311 305.05 63.462C304.973 63.4929 304.903 63.5387 304.844 63.5969C304.785 63.655 304.738 63.7243 304.706 63.8008C304.674 63.8772 304.658 63.9592 304.658 64.042C304.658 64.1248 304.674 64.2068 304.706 64.2832C304.738 64.3596 304.785 64.4289 304.844 64.4871C304.903 64.5452 304.973 64.5911 305.05 64.622C305.127 64.6529 305.209 64.6682 305.292 64.667H310.708C310.791 64.6682 310.874 64.6529 310.95 64.622C311.027 64.5911 311.097 64.5452 311.156 64.4871C311.215 64.4289 311.262 64.3596 311.294 64.2832C311.326 64.2068 311.342 64.1248 311.342 64.042C311.342 63.9592 311.326 63.8772 311.294 63.8008C311.262 63.7243 311.215 63.655 311.156 63.5969C311.097 63.5387 311.027 63.4929 310.95 63.462C310.874 63.4311 310.791 63.4158 310.708 63.417H305.292ZM305.292 66.3337C305.209 66.3325 305.127 66.3478 305.05 66.3787C304.973 66.4096 304.903 66.4554 304.844 66.5136C304.785 66.5717 304.738 66.641 304.706 66.7174C304.674 66.7938 304.658 66.8758 304.658 66.9587C304.658 67.0415 304.674 67.1235 304.706 67.1999C304.738 67.2763 304.785 67.3456 304.844 67.4038C304.903 67.4619 304.973 67.5078 305.05 67.5386C305.127 67.5695 305.209 67.5848 305.292 67.5837H309.042C309.125 67.5848 309.207 67.5695 309.284 67.5386C309.361 67.5078 309.431 67.4619 309.49 67.4038C309.548 67.3456 309.595 67.2763 309.627 67.1999C309.659 67.1235 309.676 67.0415 309.676 66.9587C309.676 66.8758 309.659 66.7938 309.627 66.7174C309.595 66.641 309.548 66.5717 309.49 66.5136C309.431 66.4554 309.361 66.4096 309.284 66.3787C309.207 66.3478 309.125 66.3325 309.042 66.3337H305.292Z" fill="#181D27"/>
</g>
<path d="M80 85V87H56V85H80ZM90 75V51C90 45.4772 85.5228 41 80 41H56C50.4772 41 46 45.4772 46 51V75C46 80.5228 50.4772 85 56 85V87C49.3726 87 44 81.6274 44 75V51C44 44.3726 49.3726 39 56 39H80C86.6274 39 92 44.3726 92 51V75C92 81.6274 86.6274 87 80 87V85C85.5228 85 90 80.5228 90 75Z" fill="#27727F"/>
<g filter="url(#filter5_dii_16591_1787)">
<path d="M114 118C114 113.582 117.582 110 122 110H150C154.418 110 158 113.582 158 118V146C158 150.418 154.418 154 150 154H122C117.582 154 114 150.418 114 146V118Z" fill="#FDC57A"/>
<path d="M122 111H150C153.866 111 157 114.134 157 118V146C157 149.866 153.866 153 150 153H122C118.134 153 115 149.866 115 146V118C115 114.134 118.134 111 122 111Z" stroke="url(#paint0_linear_16591_1787)" stroke-width="2"/>
<path d="M132.341 138.256C131.864 138.256 131.428 138.14 131.034 137.909C130.64 137.674 130.326 137.36 130.091 136.966C129.856 136.568 129.739 136.133 129.739 135.659C129.739 135.178 129.856 134.741 130.091 134.347C130.326 133.953 130.64 133.638 131.034 133.403C131.428 133.169 131.864 133.051 132.341 133.051H133.523V131.301H132.341C131.864 131.301 131.428 131.186 131.034 130.955C130.64 130.72 130.326 130.407 130.091 130.017C129.856 129.623 129.739 129.186 129.739 128.705C129.739 128.227 129.856 127.792 130.091 127.398C130.326 127.004 130.64 126.691 131.034 126.46C131.428 126.225 131.864 126.108 132.341 126.108C132.818 126.108 133.254 126.225 133.648 126.46C134.042 126.691 134.356 127.004 134.591 127.398C134.83 127.792 134.949 128.227 134.949 128.705V129.881H136.693V128.705C136.693 128.227 136.809 127.792 137.04 127.398C137.275 127.004 137.589 126.691 137.983 126.46C138.377 126.225 138.814 126.108 139.295 126.108C139.773 126.108 140.208 126.225 140.602 126.46C140.996 126.691 141.309 127.004 141.54 127.398C141.775 127.792 141.892 128.227 141.892 128.705C141.892 129.186 141.775 129.623 141.54 130.017C141.305 130.407 140.991 130.72 140.597 130.955C140.206 131.186 139.773 131.301 139.295 131.301H138.119V133.051H139.295C139.773 133.051 140.206 133.169 140.597 133.403C140.991 133.638 141.305 133.953 141.54 134.347C141.775 134.741 141.892 135.178 141.892 135.659C141.892 136.133 141.775 136.568 141.54 136.966C141.305 137.36 140.991 137.674 140.597 137.909C140.206 138.14 139.773 138.256 139.295 138.256C138.814 138.256 138.377 138.14 137.983 137.909C137.589 137.674 137.275 137.36 137.04 136.966C136.809 136.568 136.693 136.133 136.693 135.659V134.472H134.949V135.659C134.949 136.133 134.83 136.568 134.591 136.966C134.356 137.36 134.042 137.674 133.648 137.909C133.254 138.14 132.818 138.256 132.341 138.256ZM132.341 136.835C132.557 136.835 132.754 136.782 132.932 136.676C133.114 136.57 133.258 136.428 133.364 136.25C133.47 136.072 133.523 135.875 133.523 135.659V134.472H132.341C132.125 134.472 131.928 134.527 131.75 134.636C131.572 134.742 131.43 134.884 131.324 135.062C131.218 135.241 131.165 135.439 131.165 135.659C131.165 135.875 131.216 136.072 131.318 136.25C131.424 136.428 131.566 136.57 131.744 136.676C131.926 136.782 132.125 136.835 132.341 136.835ZM132.341 129.881H133.523V128.705C133.523 128.485 133.47 128.288 133.364 128.114C133.258 127.936 133.114 127.794 132.932 127.688C132.754 127.581 132.557 127.528 132.341 127.528C132.125 127.528 131.928 127.581 131.75 127.688C131.572 127.794 131.43 127.936 131.324 128.114C131.218 128.288 131.165 128.485 131.165 128.705C131.165 128.92 131.216 129.119 131.318 129.301C131.424 129.479 131.566 129.621 131.744 129.727C131.926 129.83 132.125 129.881 132.341 129.881ZM138.119 129.881H139.295C139.511 129.881 139.708 129.83 139.886 129.727C140.064 129.621 140.205 129.479 140.307 129.301C140.413 129.123 140.466 128.924 140.466 128.705C140.466 128.485 140.413 128.288 140.307 128.114C140.205 127.936 140.064 127.794 139.886 127.688C139.708 127.581 139.511 127.528 139.295 127.528C139.076 127.528 138.877 127.581 138.699 127.688C138.521 127.794 138.379 127.936 138.273 128.114C138.17 128.288 138.119 128.485 138.119 128.705V129.881ZM139.295 136.835C139.511 136.835 139.708 136.782 139.886 136.676C140.064 136.57 140.205 136.428 140.307 136.25C140.413 136.072 140.466 135.875 140.466 135.659C140.466 135.439 140.413 135.241 140.307 135.062C140.205 134.884 140.064 134.742 139.886 134.636C139.708 134.527 139.511 134.472 139.295 134.472H138.119V135.659C138.119 135.875 138.17 136.072 138.273 136.25C138.379 136.428 138.521 136.57 138.699 136.676C138.877 136.782 139.076 136.835 139.295 136.835ZM134.949 133.051H136.693V131.301H134.949V133.051Z" fill="#181D27"/>
</g>
<g filter="url(#filter6_dii_16591_1787)">
<path d="M166 118C166 113.582 169.582 110 174 110H202C206.418 110 210 113.582 210 118V146C210 150.418 206.418 154 202 154H174C169.582 154 166 150.418 166 146V118Z" fill="#FDC57A"/>
<path d="M174 111H202C205.866 111 209 114.134 209 118V146C209 149.866 205.866 153 202 153H174C170.134 153 167 149.866 167 146V118C167 114.134 170.134 111 174 111Z" stroke="url(#paint1_linear_16591_1787)" stroke-width="2"/>
<path d="M180.307 132.761L187.619 125.455L194.926 132.761H191.256V138H183.983V132.761H180.307ZM183.67 131.466H185.608V136.705H189.625V131.466H191.562L187.619 127.523L183.67 131.466Z" fill="#181D27"/>
</g>
<g filter="url(#filter7_dii_16591_1787)">
<path d="M218 118C218 113.582 221.582 110 226 110H254C258.418 110 262 113.582 262 118V146C262 150.418 258.418 154 254 154H226C221.582 154 218 150.418 218 146V118Z" fill="#FDC57A"/>
<path d="M226 111H254C257.866 111 261 114.134 261 118V146C261 149.866 257.866 153 254 153H226C222.134 153 219 149.866 219 146V118C219 114.134 222.134 111 226 111Z" stroke="url(#paint2_linear_16591_1787)" stroke-width="2"/>
<path d="M236.705 126.364L239.733 135.523H239.852L242.875 126.364H245.193L241.091 138H238.489L234.392 126.364H236.705Z" fill="#181D27"/>
</g>
<defs>
<filter id="filter0_d_16591_1787" x="46" y="41" width="44" height="44" filterUnits="userSpaceOnUse" color-interpolation-filters="sRGB">
<feFlood flood-opacity="0" result="BackgroundImageFix"/>
<feColorMatrix in="SourceAlpha" type="matrix" values="0 0 0 0 0 0 0 0 0 0 0 0 0 0 0 0 0 0 127 0" result="hardAlpha"/>
<feMorphology radius="2" operator="dilate" in="SourceAlpha" result="effect1_dropShadow_16591_1787"/>
<feOffset/>
<feComposite in2="hardAlpha" operator="out"/>
<feColorMatrix type="matrix" values="0 0 0 0 1 0 0 0 0 1 0 0 0 0 1 0 0 0 1 0"/>
<feBlend mode="normal" in2="BackgroundImageFix" result="effect1_dropShadow_16591_1787"/>
<feBlend mode="normal" in="SourceGraphic" in2="effect1_dropShadow_16591_1787" result="shape"/>
</filter>
<filter id="filter1_dii_16591_1787" x="106" y="42" width="44" height="44" filterUnits="userSpaceOnUse" color-interpolation-filters="sRGB">
<feFlood flood-opacity="0" result="BackgroundImageFix"/>
<feColorMatrix in="SourceAlpha" type="matrix" values="0 0 0 0 0 0 0 0 0 0 0 0 0 0 0 0 0 0 127 0" result="hardAlpha"/>
<feOffset dy="1"/>
<feGaussianBlur stdDeviation="1"/>
<feColorMatrix type="matrix" values="0 0 0 0 0.0392157 0 0 0 0 0.0496732 0 0 0 0 0.0705882 0 0 0 0.05 0"/>
<feBlend mode="normal" in2="BackgroundImageFix" result="effect1_dropShadow_16591_1787"/>
<feBlend mode="normal" in="SourceGraphic" in2="effect1_dropShadow_16591_1787" result="shape"/>
<feColorMatrix in="SourceAlpha" type="matrix" values="0 0 0 0 0 0 0 0 0 0 0 0 0 0 0 0 0 0 127 0" result="hardAlpha"/>
<feOffset dy="-2"/>
<feComposite in2="hardAlpha" operator="arithmetic" k2="-1" k3="1"/>
<feColorMatrix type="matrix" values="0 0 0 0 0.0392157 0 0 0 0 0.0496732 0 0 0 0 0.0705882 0 0 0 0.05 0"/>
<feBlend mode="normal" in2="shape" result="effect2_innerShadow_16591_1787"/>
<feColorMatrix in="SourceAlpha" type="matrix" values="0 0 0 0 0 0 0 0 0 0 0 0 0 0 0 0 0 0 127 0" result="hardAlpha"/>
<feMorphology radius="1" operator="erode" in="SourceAlpha" result="effect3_innerShadow_16591_1787"/>
<feOffset/>
<feComposite in2="hardAlpha" operator="arithmetic" k2="-1" k3="1"/>
<feColorMatrix type="matrix" values="0 0 0 0 0.0392157 0 0 0 0 0.0496732 0 0 0 0 0.0705882 0 0 0 0.18 0"/>
<feBlend mode="normal" in2="effect2_innerShadow_16591_1787" result="effect3_innerShadow_16591_1787"/>
</filter>
<filter id="filter2_dii_16591_1787" x="166" y="42" width="44" height="44" filterUnits="userSpaceOnUse" color-interpolation-filters="sRGB">
<feFlood flood-opacity="0" result="BackgroundImageFix"/>
<feColorMatrix in="SourceAlpha" type="matrix" values="0 0 0 0 0 0 0 0 0 0 0 0 0 0 0 0 0 0 127 0" result="hardAlpha"/>
<feOffset dy="1"/>
<feGaussianBlur stdDeviation="1"/>
<feColorMatrix type="matrix" values="0 0 0 0 0.0392157 0 0 0 0 0.0496732 0 0 0 0 0.0705882 0 0 0 0.05 0"/>
<feBlend mode="normal" in2="BackgroundImageFix" result="effect1_dropShadow_16591_1787"/>
<feBlend mode="normal" in="SourceGraphic" in2="effect1_dropShadow_16591_1787" result="shape"/>
<feColorMatrix in="SourceAlpha" type="matrix" values="0 0 0 0 0 0 0 0 0 0 0 0 0 0 0 0 0 0 127 0" result="hardAlpha"/>
<feOffset dy="-2"/>
<feComposite in2="hardAlpha" operator="arithmetic" k2="-1" k3="1"/>
<feColorMatrix type="matrix" values="0 0 0 0 0.0392157 0 0 0 0 0.0496732 0 0 0 0 0.0705882 0 0 0 0.05 0"/>
<feBlend mode="normal" in2="shape" result="effect2_innerShadow_16591_1787"/>
<feColorMatrix in="SourceAlpha" type="matrix" values="0 0 0 0 0 0 0 0 0 0 0 0 0 0 0 0 0 0 127 0" result="hardAlpha"/>
<feMorphology radius="1" operator="erode" in="SourceAlpha" result="effect3_innerShadow_16591_1787"/>
<feOffset/>
<feComposite in2="hardAlpha" operator="arithmetic" k2="-1" k3="1"/>
<feColorMatrix type="matrix" values="0 0 0 0 0.0392157 0 0 0 0 0.0496732 0 0 0 0 0.0705882 0 0 0 0.18 0"/>
<feBlend mode="normal" in2="effect2_innerShadow_16591_1787" result="effect3_innerShadow_16591_1787"/>
</filter>
<filter id="filter3_dii_16591_1787" x="226" y="42" width="44" height="44" filterUnits="userSpaceOnUse" color-interpolation-filters="sRGB">
<feFlood flood-opacity="0" result="BackgroundImageFix"/>
<feColorMatrix in="SourceAlpha" type="matrix" values="0 0 0 0 0 0 0 0 0 0 0 0 0 0 0 0 0 0 127 0" result="hardAlpha"/>
<feOffset dy="1"/>
<feGaussianBlur stdDeviation="1"/>
<feColorMatrix type="matrix" values="0 0 0 0 0.0392157 0 0 0 0 0.0496732 0 0 0 0 0.0705882 0 0 0 0.05 0"/>
<feBlend mode="normal" in2="BackgroundImageFix" result="effect1_dropShadow_16591_1787"/>
<feBlend mode="normal" in="SourceGraphic" in2="effect1_dropShadow_16591_1787" result="shape"/>
<feColorMatrix in="SourceAlpha" type="matrix" values="0 0 0 0 0 0 0 0 0 0 0 0 0 0 0 0 0 0 127 0" result="hardAlpha"/>
<feOffset dy="-2"/>
<feComposite in2="hardAlpha" operator="arithmetic" k2="-1" k3="1"/>
<feColorMatrix type="matrix" values="0 0 0 0 0.0392157 0 0 0 0 0.0496732 0 0 0 0 0.0705882 0 0 0 0.05 0"/>
<feBlend mode="normal" in2="shape" result="effect2_innerShadow_16591_1787"/>
<feColorMatrix in="SourceAlpha" type="matrix" values="0 0 0 0 0 0 0 0 0 0 0 0 0 0 0 0 0 0 127 0" result="hardAlpha"/>
<feMorphology radius="1" operator="erode" in="SourceAlpha" result="effect3_innerShadow_16591_1787"/>
<feOffset/>
<feComposite in2="hardAlpha" operator="arithmetic" k2="-1" k3="1"/>
<feColorMatrix type="matrix" values="0 0 0 0 0.0392157 0 0 0 0 0.0496732 0 0 0 0 0.0705882 0 0 0 0.18 0"/>
<feBlend mode="normal" in2="effect2_innerShadow_16591_1787" result="effect3_innerShadow_16591_1787"/>
</filter>
<filter id="filter4_dii_16591_1787" x="286" y="42" width="44" height="44" filterUnits="userSpaceOnUse" color-interpolation-filters="sRGB">
<feFlood flood-opacity="0" result="BackgroundImageFix"/>
<feColorMatrix in="SourceAlpha" type="matrix" values="0 0 0 0 0 0 0 0 0 0 0 0 0 0 0 0 0 0 127 0" result="hardAlpha"/>
<feOffset dy="1"/>
<feGaussianBlur stdDeviation="1"/>
<feColorMatrix type="matrix" values="0 0 0 0 0.0392157 0 0 0 0 0.0496732 0 0 0 0 0.0705882 0 0 0 0.05 0"/>
<feBlend mode="normal" in2="BackgroundImageFix" result="effect1_dropShadow_16591_1787"/>
<feBlend mode="normal" in="SourceGraphic" in2="effect1_dropShadow_16591_1787" result="shape"/>
<feColorMatrix in="SourceAlpha" type="matrix" values="0 0 0 0 0 0 0 0 0 0 0 0 0 0 0 0 0 0 127 0" result="hardAlpha"/>
<feOffset dy="-2"/>
<feComposite in2="hardAlpha" operator="arithmetic" k2="-1" k3="1"/>
<feColorMatrix type="matrix" values="0 0 0 0 0.0392157 0 0 0 0 0.0496732 0 0 0 0 0.0705882 0 0 0 0.05 0"/>
<feBlend mode="normal" in2="shape" result="effect2_innerShadow_16591_1787"/>
<feColorMatrix in="SourceAlpha" type="matrix" values="0 0 0 0 0 0 0 0 0 0 0 0 0 0 0 0 0 0 127 0" result="hardAlpha"/>
<feMorphology radius="1" operator="erode" in="SourceAlpha" result="effect3_innerShadow_16591_1787"/>
<feOffset/>
<feComposite in2="hardAlpha" operator="arithmetic" k2="-1" k3="1"/>
<feColorMatrix type="matrix" values="0 0 0 0 0.0392157 0 0 0 0 0.0496732 0 0 0 0 0.0705882 0 0 0 0.18 0"/>
<feBlend mode="normal" in2="effect2_innerShadow_16591_1787" result="effect3_innerShadow_16591_1787"/>
</filter>
<filter id="filter5_dii_16591_1787" x="112" y="109" width="48" height="48" filterUnits="userSpaceOnUse" color-interpolation-filters="sRGB">
<feFlood flood-opacity="0" result="BackgroundImageFix"/>
<feColorMatrix in="SourceAlpha" type="matrix" values="0 0 0 0 0 0 0 0 0 0 0 0 0 0 0 0 0 0 127 0" result="hardAlpha"/>
<feOffset dy="1"/>
<feGaussianBlur stdDeviation="1"/>
<feColorMatrix type="matrix" values="0 0 0 0 0.0392157 0 0 0 0 0.0496732 0 0 0 0 0.0705882 0 0 0 0.05 0"/>
<feBlend mode="normal" in2="BackgroundImageFix" result="effect1_dropShadow_16591_1787"/>
<feBlend mode="normal" in="SourceGraphic" in2="effect1_dropShadow_16591_1787" result="shape"/>
<feColorMatrix in="SourceAlpha" type="matrix" values="0 0 0 0 0 0 0 0 0 0 0 0 0 0 0 0 0 0 127 0" result="hardAlpha"/>
<feOffset dy="-2"/>
<feComposite in2="hardAlpha" operator="arithmetic" k2="-1" k3="1"/>
<feColorMatrix type="matrix" values="0 0 0 0 0.0392157 0 0 0 0 0.0496732 0 0 0 0 0.0705882 0 0 0 0.05 0"/>
<feBlend mode="normal" in2="shape" result="effect2_innerShadow_16591_1787"/>
<feColorMatrix in="SourceAlpha" type="matrix" values="0 0 0 0 0 0 0 0 0 0 0 0 0 0 0 0 0 0 127 0" result="hardAlpha"/>
<feMorphology radius="1" operator="erode" in="SourceAlpha" result="effect3_innerShadow_16591_1787"/>
<feOffset/>
<feComposite in2="hardAlpha" operator="arithmetic" k2="-1" k3="1"/>
<feColorMatrix type="matrix" values="0 0 0 0 0.0392157 0 0 0 0 0.0496732 0 0 0 0 0.0705882 0 0 0 0.18 0"/>
<feBlend mode="normal" in2="effect2_innerShadow_16591_1787" result="effect3_innerShadow_16591_1787"/>
</filter>
<filter id="filter6_dii_16591_1787" x="164" y="109" width="48" height="48" filterUnits="userSpaceOnUse" color-interpolation-filters="sRGB">
<feFlood flood-opacity="0" result="BackgroundImageFix"/>
<feColorMatrix in="SourceAlpha" type="matrix" values="0 0 0 0 0 0 0 0 0 0 0 0 0 0 0 0 0 0 127 0" result="hardAlpha"/>
<feOffset dy="1"/>
<feGaussianBlur stdDeviation="1"/>
<feColorMatrix type="matrix" values="0 0 0 0 0.0392157 0 0 0 0 0.0496732 0 0 0 0 0.0705882 0 0 0 0.05 0"/>
<feBlend mode="normal" in2="BackgroundImageFix" result="effect1_dropShadow_16591_1787"/>
<feBlend mode="normal" in="SourceGraphic" in2="effect1_dropShadow_16591_1787" result="shape"/>
<feColorMatrix in="SourceAlpha" type="matrix" values="0 0 0 0 0 0 0 0 0 0 0 0 0 0 0 0 0 0 127 0" result="hardAlpha"/>
<feOffset dy="-2"/>
<feComposite in2="hardAlpha" operator="arithmetic" k2="-1" k3="1"/>
<feColorMatrix type="matrix" values="0 0 0 0 0.0392157 0 0 0 0 0.0496732 0 0 0 0 0.0705882 0 0 0 0.05 0"/>
<feBlend mode="normal" in2="shape" result="effect2_innerShadow_16591_1787"/>
<feColorMatrix in="SourceAlpha" type="matrix" values="0 0 0 0 0 0 0 0 0 0 0 0 0 0 0 0 0 0 127 0" result="hardAlpha"/>
<feMorphology radius="1" operator="erode" in="SourceAlpha" result="effect3_innerShadow_16591_1787"/>
<feOffset/>
<feComposite in2="hardAlpha" operator="arithmetic" k2="-1" k3="1"/>
<feColorMatrix type="matrix" values="0 0 0 0 0.0392157 0 0 0 0 0.0496732 0 0 0 0 0.0705882 0 0 0 0.18 0"/>
<feBlend mode="normal" in2="effect2_innerShadow_16591_1787" result="effect3_innerShadow_16591_1787"/>
</filter>
<filter id="filter7_dii_16591_1787" x="216" y="109" width="48" height="48" filterUnits="userSpaceOnUse" color-interpolation-filters="sRGB">
<feFlood flood-opacity="0" result="BackgroundImageFix"/>
<feColorMatrix in="SourceAlpha" type="matrix" values="0 0 0 0 0 0 0 0 0 0 0 0 0 0 0 0 0 0 127 0" result="hardAlpha"/>
<feOffset dy="1"/>
<feGaussianBlur stdDeviation="1"/>
<feColorMatrix type="matrix" values="0 0 0 0 0.0392157 0 0 0 0 0.0496732 0 0 0 0 0.0705882 0 0 0 0.05 0"/>
<feBlend mode="normal" in2="BackgroundImageFix" result="effect1_dropShadow_16591_1787"/>
<feBlend mode="normal" in="SourceGraphic" in2="effect1_dropShadow_16591_1787" result="shape"/>
<feColorMatrix in="SourceAlpha" type="matrix" values="0 0 0 0 0 0 0 0 0 0 0 0 0 0 0 0 0 0 127 0" result="hardAlpha"/>
<feOffset dy="-2"/>
<feComposite in2="hardAlpha" operator="arithmetic" k2="-1" k3="1"/>
<feColorMatrix type="matrix" values="0 0 0 0 0.0392157 0 0 0 0 0.0496732 0 0 0 0 0.0705882 0 0 0 0.05 0"/>
<feBlend mode="normal" in2="shape" result="effect2_innerShadow_16591_1787"/>
<feColorMatrix in="SourceAlpha" type="matrix" values="0 0 0 0 0 0 0 0 0 0 0 0 0 0 0 0 0 0 127 0" result="hardAlpha"/>
<feMorphology radius="1" operator="erode" in="SourceAlpha" result="effect3_innerShadow_16591_1787"/>
<feOffset/>
<feComposite in2="hardAlpha" operator="arithmetic" k2="-1" k3="1"/>
<feColorMatrix type="matrix" values="0 0 0 0 0.0392157 0 0 0 0 0.0496732 0 0 0 0 0.0705882 0 0 0 0.18 0"/>
<feBlend mode="normal" in2="effect2_innerShadow_16591_1787" result="effect3_innerShadow_16591_1787"/>
</filter>
<linearGradient id="paint0_linear_16591_1787" x1="136" y1="110" x2="136" y2="154" gradientUnits="userSpaceOnUse">
<stop stop-color="white" stop-opacity="0.12"/>
<stop offset="1" stop-color="white" stop-opacity="0"/>
</linearGradient>
<linearGradient id="paint1_linear_16591_1787" x1="188" y1="110" x2="188" y2="154" gradientUnits="userSpaceOnUse">
<stop stop-color="white" stop-opacity="0.12"/>
<stop offset="1" stop-color="white" stop-opacity="0"/>
</linearGradient>
<linearGradient id="paint2_linear_16591_1787" x1="240" y1="110" x2="240" y2="154" gradientUnits="userSpaceOnUse">
<stop stop-color="white" stop-opacity="0.12"/>
<stop offset="1" stop-color="white" stop-opacity="0"/>
</linearGradient>
</defs>
</svg>
