<svg width="184" height="184" viewBox="0 0 184 184" fill="none" xmlns="http://www.w3.org/2000/svg">
<ellipse cx="73.7959" cy="30.6021" rx="6.42444" ry="9.16588" transform="rotate(-24.8713 73.7959 30.6021)" fill="#FFC676" stroke="#00343A" stroke-width="2.52852" stroke-linecap="round"/>
<ellipse cx="105.522" cy="28.4935" rx="6.33313" ry="9.16588" transform="rotate(38.0421 105.522 28.4935)" fill="#FFC676" stroke="#00343A" stroke-width="2.52852" stroke-linecap="round"/>
<path d="M30.7815 129.965C40.2635 129.175 62.7041 103.099 75.0306 94.7236L77.4011 117.954L70.6058 147.506C68.3933 147.77 63.3995 147.854 61.1238 146.084C58.2792 143.872 54.6445 146.084 48.6392 144.82C41.3697 134.074 21.2996 130.755 30.7815 129.965Z" fill="#FFC676" stroke="#00343A" stroke-width="2.52852" stroke-linecap="round"/>
<path d="M61.9139 121.589C53.9491 113.371 67.8665 100.149 75.8208 94.5656C82.9322 90.4041 103.034 85.779 126.549 100.571C150.064 115.363 139.011 120.746 130.545 121.589C133.263 134.383 128.524 144.451 124.969 148.613C124.863 151.021 124.052 157.047 121.65 161.887C118.648 167.938 107.901 166.154 104.899 165.522C102.497 165.016 100.21 158.854 99.3676 155.836C97.0412 155.745 94.9964 155.509 93.5204 155.25C93.7311 155.882 93.3307 158.348 90.0437 163.152C85.9348 169.157 75.8208 165.838 72.502 163.152C69.1833 160.465 72.502 159.675 66.9709 146.242C62.546 135.496 61.7559 125.329 61.9139 121.589Z" fill="white"/>
<path d="M61.9139 121.589C53.9491 113.371 67.8665 100.149 75.8208 94.5656C82.9322 90.4041 103.034 85.779 126.549 100.571C150.064 115.363 139.011 120.746 130.545 121.589M61.9139 121.589C75.8208 126.646 89.8856 129.491 92.4141 124.434C94.9427 119.377 97.3131 114.162 79.6135 106.892M61.9139 121.589C61.7559 125.329 62.546 135.496 66.9709 146.242C72.502 159.675 69.1833 160.465 72.502 163.152C75.8208 165.838 85.9348 169.157 90.0437 163.152C93.3307 158.348 93.7311 155.882 93.5204 155.25C94.9964 155.509 97.0412 155.745 99.3676 155.836M117.383 152.089C112.528 155.416 105.095 156.063 99.3676 155.836M99.3676 155.836C100.21 158.854 102.497 165.016 104.899 165.522C107.901 166.154 118.648 167.938 121.65 161.887C124.052 157.047 124.863 151.021 124.969 148.613C128.524 144.451 133.263 134.383 130.545 121.589M125.759 109.263C128.204 113.564 129.718 117.702 130.545 121.589" stroke="#00343A" stroke-width="2.52852" stroke-linecap="round"/>
<path d="M112.484 110.843H103.16L100.632 119.535H106.637L105.057 126.962L112.484 118.428L109.798 116.848L112.484 110.843Z" fill="#FFC676" stroke="#00343A" stroke-width="2.52852" stroke-linecap="round" stroke-linejoin="round"/>
<path d="M131.132 129.807C114.95 134.105 78.8761 132.124 62.7041 130.597L63.8103 135.97C79.8664 138.372 114.855 136.971 130.5 135.97L131.132 129.807Z" fill="#FFC676" stroke="#00343A" stroke-width="2.52852" stroke-linecap="round"/>
<path d="M63.3359 64.0653C63.3359 47.63 69.2358 37.0945 72.1857 33.8811C85.7765 24.3992 95.5745 26.6116 107.743 30.8785C117.478 34.292 122.335 48.5255 123.546 55.2155C128.919 57.0592 140.108 63.9073 141.878 76.5499C144.09 92.3531 115.803 115.11 82.4578 104.048C55.7819 95.1977 58.5949 73.7053 63.3359 64.0653Z" fill="#FFC676" stroke="#00343A" stroke-width="2.52852" stroke-linecap="round"/>
<ellipse cx="85.1452" cy="56.7954" rx="2.84458" ry="2.37049" transform="rotate(-12.0899 85.1452 56.7954)" fill="#00343A"/>
<ellipse cx="111.179" cy="53.8627" rx="2.84458" ry="2.37049" transform="rotate(-12.0899 111.179 53.8627)" fill="#00343A"/>
<ellipse cx="101.942" cy="79.272" rx="2.84458" ry="2.37049" transform="rotate(57.774 101.942 79.272)" fill="#00343A"/>
<ellipse cx="124.894" cy="77.4251" rx="2.84458" ry="2.37049" transform="rotate(106.631 124.894 77.4251)" fill="#00343A"/>
</svg>
