<svg width="376" height="184" viewBox="0 0 376 184" fill="none" xmlns="http://www.w3.org/2000/svg">
<rect width="376" height="184" fill="white"/>
<rect x="32" y="31" width="312" height="64" rx="12" fill="#F5F5F5"/>
<g filter="url(#filter0_dii_16591_1894)">
<path d="M48 51C48 46.5817 51.5817 43 56 43H80C84.4183 43 88 46.5817 88 51V75C88 79.4183 84.4183 83 80 83H56C51.5817 83 48 79.4183 48 75V51Z" fill="#FDFDFD"/>
<path d="M56 43.5H80C84.1421 43.5 87.5 46.8579 87.5 51V75C87.5 79.1421 84.1421 82.5 80 82.5H56C51.8579 82.5 48.5 79.1421 48.5 75V51C48.5 46.8579 51.8579 43.5 56 43.5Z" stroke="#D5D7DA"/>
<path d="M63.4168 58.4171C60.8928 58.4171 58.8335 60.4764 58.8335 63.0004C58.8335 65.5244 60.8928 67.5837 63.4168 67.5837H65.2918C65.3746 67.5849 65.4569 67.5696 65.5337 67.5387C65.6106 67.5078 65.6805 67.462 65.7395 67.4038C65.7985 67.3457 65.8453 67.2764 65.8773 67.2C65.9093 67.1236 65.9257 67.0415 65.9257 66.9587C65.9257 66.8759 65.9093 66.7939 65.8773 66.7175C65.8453 66.6411 65.7985 66.5718 65.7395 66.5136C65.6805 66.4555 65.6106 66.4096 65.5337 66.3787C65.4569 66.3479 65.3746 66.3326 65.2918 66.3337H63.4168C61.5683 66.3337 60.0835 64.8489 60.0835 63.0004C60.0835 61.1519 61.5683 59.6671 63.4168 59.6671H65.2918C65.3746 59.6682 65.4569 59.6529 65.5337 59.622C65.6106 59.5912 65.6805 59.5453 65.7395 59.4872C65.7985 59.429 65.8453 59.3597 65.8773 59.2833C65.9093 59.2069 65.9257 59.1249 65.9257 59.0421C65.9257 58.9592 65.9093 58.8772 65.8773 58.8008C65.8453 58.7244 65.7985 58.6551 65.7395 58.597C65.6805 58.5388 65.6106 58.493 65.5337 58.4621C65.4569 58.4312 65.3746 58.4159 65.2918 58.4171H63.4168ZM70.7085 58.4171C70.6257 58.4159 70.5434 58.4312 70.4666 58.4621C70.3897 58.493 70.3198 58.5388 70.2608 58.597C70.2018 58.6551 70.155 58.7244 70.123 58.8008C70.0911 58.8772 70.0746 58.9592 70.0746 59.0421C70.0746 59.1249 70.0911 59.2069 70.123 59.2833C70.155 59.3597 70.2018 59.429 70.2608 59.4872C70.3198 59.5453 70.3897 59.5912 70.4666 59.622C70.5434 59.6529 70.6257 59.6682 70.7085 59.6671H72.5835C74.432 59.6671 75.9168 61.1519 75.9168 63.0004C75.9168 64.8489 74.432 66.3337 72.5835 66.3337H70.7085C70.6257 66.3326 70.5434 66.3479 70.4666 66.3787C70.3897 66.4096 70.3198 66.4555 70.2608 66.5136C70.2018 66.5718 70.155 66.6411 70.123 66.7175C70.0911 66.7939 70.0746 66.8759 70.0746 66.9587C70.0746 67.0415 70.0911 67.1236 70.123 67.2C70.155 67.2764 70.2018 67.3457 70.2608 67.4038C70.3198 67.462 70.3897 67.5078 70.4666 67.5387C70.5434 67.5696 70.6257 67.5849 70.7085 67.5837H72.5835C75.1075 67.5837 77.1668 65.5244 77.1668 63.0004C77.1668 60.4764 75.1075 58.4171 72.5835 58.4171H70.7085ZM62.7918 62.3754C62.709 62.3742 62.6268 62.3895 62.5499 62.4204C62.4731 62.4513 62.4031 62.4971 62.3441 62.5553C62.2852 62.6134 62.2383 62.6827 62.2064 62.7591C62.1744 62.8356 62.1579 62.9176 62.1579 63.0004C62.1579 63.0832 62.1744 63.1652 62.2064 63.2416C62.2383 63.318 62.2852 63.3873 62.3441 63.4455C62.4031 63.5036 62.4731 63.5495 62.5499 63.5804C62.6268 63.6113 62.709 63.6266 62.7918 63.6254H73.2085C73.2913 63.6266 73.3735 63.6113 73.4504 63.5804C73.5273 63.5495 73.5972 63.5036 73.6562 63.4455C73.7152 63.3873 73.762 63.318 73.794 63.2416C73.8259 63.1652 73.8424 63.0832 73.8424 63.0004C73.8424 62.9176 73.8259 62.8356 73.794 62.7591C73.762 62.6827 73.7152 62.6134 73.6562 62.5553C73.5972 62.4971 73.5273 62.4513 73.4504 62.4204C73.3735 62.3895 73.2913 62.3742 73.2085 62.3754H62.7918Z" fill="#181D27"/>
</g>
<g filter="url(#filter1_dii_16591_1894)">
<path d="M108 51C108 46.5817 111.582 43 116 43H140C144.418 43 148 46.5817 148 51V75C148 79.4183 144.418 83 140 83H116C111.582 83 108 79.4183 108 75V51Z" fill="#FDFDFD"/>
<path d="M116 43.5H140C144.142 43.5 147.5 46.8579 147.5 51V75C147.5 79.1421 144.142 82.5 140 82.5H116C111.858 82.5 108.5 79.1421 108.5 75V51C108.5 46.8579 111.858 43.5 116 43.5Z" stroke="#D5D7DA"/>
<path d="M122.792 55.5C121.533 55.5 120.5 56.5334 120.5 57.7917V68.2083C120.5 69.4666 121.533 70.5 122.792 70.5H133.208C134.467 70.5 135.5 69.4666 135.5 68.2083V57.7917C135.5 56.5334 134.467 55.5 133.208 55.5H122.792ZM122.792 56.75H133.208C133.791 56.75 134.25 57.2091 134.25 57.7917V68.2083C134.25 68.2636 134.242 68.3167 134.234 68.3695L129.173 63.4728C128.848 63.1589 128.424 63.0024 128 63.0024C127.576 63.0024 127.153 63.1589 126.828 63.4728L121.766 68.3695C121.758 68.3167 121.75 68.2636 121.75 68.2083V57.7917C121.75 57.2091 122.209 56.75 122.792 56.75ZM130.708 58.4167C130.135 58.4167 129.627 58.654 129.304 59.0173C128.981 59.3805 128.833 59.8403 128.833 60.2917C128.833 60.7431 128.981 61.2028 129.304 61.5661C129.627 61.9293 130.135 62.1667 130.708 62.1667C131.281 62.1667 131.79 61.9293 132.113 61.5661C132.436 61.2028 132.583 60.7431 132.583 60.2917C132.583 59.8403 132.436 59.3805 132.113 59.0173C131.79 58.654 131.281 58.4167 130.708 58.4167ZM130.708 59.6667C130.969 59.6667 131.085 59.7418 131.179 59.8473C131.272 59.9528 131.333 60.1181 131.333 60.2917C131.333 60.4653 131.272 60.6305 131.179 60.736C131.085 60.8415 130.969 60.9167 130.708 60.9167C130.448 60.9167 130.332 60.8415 130.238 60.736C130.144 60.6305 130.083 60.4653 130.083 60.2917C130.083 60.1181 130.144 59.9528 130.238 59.8473C130.332 59.7418 130.448 59.6667 130.708 59.6667ZM128.001 64.2451C128.109 64.2451 128.217 64.2872 128.304 64.3713L133.334 69.2378C133.292 69.2427 133.251 69.25 133.208 69.25H122.792C122.749 69.25 122.708 69.2427 122.666 69.2378L127.697 64.3713C127.784 64.2872 127.893 64.2451 128.001 64.2451Z" fill="#181D27"/>
</g>
<g filter="url(#filter2_dd_16591_1894)">
<path d="M168 51C168 46.5817 171.582 43 176 43H200C204.418 43 208 46.5817 208 51V75C208 79.4183 204.418 83 200 83H176C171.582 83 168 79.4183 168 75V51Z" fill="#FDFDFD"/>
<path d="M176 43.5H200C204.142 43.5 207.5 46.8579 207.5 51V75C207.5 79.1421 204.142 82.5 200 82.5H176C171.858 82.5 168.5 79.1421 168.5 75V51C168.5 46.8579 171.858 43.5 176 43.5Z" stroke="#D5D7DA"/>
<path d="M182.365 55.4913C182.2 55.4939 182.042 55.5621 181.926 55.6809C181.811 55.7998 181.748 55.9596 181.75 56.1252V56.4394C181.739 56.5065 181.739 56.5749 181.75 56.642V56.9586C181.748 57.1072 181.8 57.2515 181.895 57.3656C181.99 57.4797 182.123 57.5562 182.269 57.5812C182.416 57.6063 182.567 57.5784 182.694 57.5025C182.822 57.4265 182.919 57.3076 182.967 57.1669H187.375V69.2502H186.542C186.459 69.2491 186.377 69.2644 186.3 69.2952C186.223 69.3261 186.153 69.372 186.094 69.4301C186.035 69.4883 185.988 69.5576 185.956 69.634C185.924 69.7104 185.908 69.7924 185.908 69.8752C185.908 69.9581 185.924 70.0401 185.956 70.1165C185.988 70.1929 186.035 70.2622 186.094 70.3203C186.153 70.3785 186.223 70.4243 186.3 70.4552C186.377 70.4861 186.459 70.5014 186.542 70.5002H187.897C187.965 70.5113 188.033 70.5113 188.1 70.5002H189.458C189.541 70.5014 189.623 70.4861 189.7 70.4552C189.777 70.4243 189.847 70.3785 189.906 70.3203C189.965 70.2622 190.012 70.1929 190.044 70.1165C190.076 70.0401 190.092 69.9581 190.092 69.8752C190.092 69.7924 190.076 69.7104 190.044 69.634C190.012 69.5576 189.965 69.4883 189.906 69.4301C189.847 69.372 189.777 69.3261 189.7 69.2952C189.623 69.2644 189.541 69.2491 189.458 69.2502H188.625V57.1669H193.033C193.081 57.3076 193.178 57.4265 193.306 57.5025C193.433 57.5784 193.584 57.6063 193.73 57.5812C193.877 57.5562 194.01 57.4797 194.105 57.3656C194.2 57.2515 194.252 57.1072 194.25 56.9586V56.6444C194.261 56.5773 194.261 56.5089 194.25 56.4418V56.1252C194.252 55.9766 194.2 55.8323 194.105 55.7182C194.01 55.6041 193.877 55.5276 193.73 55.5026C193.584 55.4775 193.433 55.5054 193.306 55.5813C193.178 55.6573 193.081 55.7762 193.033 55.9169H188.103C188.035 55.9059 187.967 55.9059 187.9 55.9169H182.967C182.924 55.7914 182.843 55.6826 182.735 55.6061C182.627 55.5296 182.498 55.4894 182.365 55.4913Z" fill="#181D27"/>
</g>
<g filter="url(#filter3_dii_16591_1894)">
<path d="M228 51C228 46.5817 231.582 43 236 43H260C264.418 43 268 46.5817 268 51V75C268 79.4183 264.418 83 260 83H236C231.582 83 228 79.4183 228 75V51Z" fill="#FDFDFD"/>
<path d="M236 43.5H260C264.142 43.5 267.5 46.8579 267.5 51V75C267.5 79.1421 264.142 82.5 260 82.5H236C231.858 82.5 228.5 79.1421 228.5 75V51C228.5 46.8579 231.858 43.5 236 43.5Z" stroke="#D5D7DA"/>
<path d="M249.868 56.3253C249.735 56.3272 249.606 56.3718 249.5 56.4523C249.394 56.5328 249.316 56.6451 249.278 56.7728L245.528 68.8562C245.501 68.9354 245.489 69.0193 245.495 69.103C245.5 69.1866 245.523 69.2684 245.56 69.3432C245.598 69.4181 245.651 69.4846 245.715 69.5388C245.779 69.593 245.853 69.6338 245.933 69.6587C246.013 69.6836 246.097 69.6921 246.181 69.6838C246.264 69.6755 246.345 69.6504 246.419 69.6102C246.492 69.5699 246.557 69.5153 246.609 69.4495C246.661 69.3837 246.699 69.3081 246.721 69.2273L250.471 57.1439C250.502 57.0494 250.51 56.9489 250.494 56.8507C250.478 56.7526 250.439 56.6596 250.38 56.5796C250.321 56.4995 250.244 56.4347 250.155 56.3904C250.066 56.3462 249.968 56.3239 249.868 56.3253ZM243.629 58.4102C243.466 58.4109 243.311 58.4748 243.194 58.5884L239.028 62.5468C238.966 62.6052 238.917 62.6755 238.884 62.7534C238.85 62.8313 238.833 62.9152 238.833 63.0001C238.833 63.0849 238.85 63.1688 238.884 63.2467C238.917 63.3247 238.966 63.395 239.028 63.4533L243.194 67.4117C243.254 67.4682 243.324 67.5125 243.401 67.542C243.477 67.5714 243.559 67.5855 243.641 67.5834C243.723 67.5813 243.804 67.563 243.879 67.5297C243.954 67.4963 244.022 67.4485 244.078 67.389C244.135 67.3294 244.179 67.2593 244.208 67.1827C244.238 67.1061 244.252 67.0244 244.25 66.9423C244.248 66.8602 244.229 66.7794 244.196 66.7044C244.163 66.6293 244.115 66.5616 244.055 66.5051L240.366 63.0001L244.055 59.495C244.148 59.4096 244.213 59.2982 244.241 59.1753C244.269 59.0524 244.26 58.9239 244.214 58.8066C244.167 58.6893 244.087 58.5886 243.983 58.5179C243.878 58.4472 243.755 58.4096 243.629 58.4102ZM252.352 58.411C252.228 58.4143 252.107 58.4546 252.006 58.5267C251.905 58.5988 251.827 58.6995 251.783 58.8158C251.74 58.9322 251.732 59.059 251.76 59.18C251.789 59.301 251.853 59.4106 251.944 59.495L255.634 63.0001L251.944 66.5051C251.885 66.5616 251.837 66.6293 251.804 66.7044C251.77 66.7794 251.752 66.8602 251.75 66.9423C251.748 67.0244 251.762 67.1061 251.791 67.1827C251.821 67.2593 251.865 67.3294 251.921 67.389C251.978 67.4485 252.046 67.4963 252.121 67.5297C252.196 67.563 252.277 67.5813 252.359 67.5834C252.441 67.5855 252.522 67.5714 252.599 67.542C252.676 67.5125 252.746 67.4682 252.805 67.4117L256.972 63.4533C257.034 63.395 257.082 63.3247 257.116 63.2467C257.149 63.1688 257.167 63.0849 257.167 63.0001C257.167 62.9152 257.149 62.8313 257.116 62.7534C257.082 62.6755 257.034 62.6052 256.972 62.5468L252.805 58.5884C252.746 58.5301 252.675 58.4843 252.597 58.4538C252.519 58.4233 252.436 58.4088 252.352 58.411Z" fill="#181D27"/>
</g>
<g filter="url(#filter4_dii_16591_1894)">
<path d="M288 51C288 46.5817 291.582 43 296 43H320C324.418 43 328 46.5817 328 51V75C328 79.4183 324.418 83 320 83H296C291.582 83 288 79.4183 288 75V51Z" fill="#FDFDFD"/>
<path d="M296 43.5H320C324.142 43.5 327.5 46.8579 327.5 51V75C327.5 79.1421 324.142 82.5 320 82.5H296C291.858 82.5 288.5 79.1421 288.5 75V51C288.5 46.8579 291.858 43.5 296 43.5Z" stroke="#D5D7DA"/>
<path d="M303.208 54.667C302.18 54.667 301.333 55.5139 301.333 56.542V69.4587C301.333 70.4868 302.18 71.3337 303.208 71.3337H312.792C313.82 71.3337 314.667 70.4868 314.667 69.4587V60.7087C314.667 60.5429 314.601 60.384 314.484 60.2668L314.477 60.2603L309.067 54.8501C308.95 54.7329 308.791 54.667 308.625 54.667H303.208ZM303.208 55.917H308V59.4587C308 60.4868 308.847 61.3337 309.875 61.3337H313.417V69.4587C313.417 69.8114 313.145 70.0837 312.792 70.0837H303.208C302.856 70.0837 302.583 69.8114 302.583 69.4587V56.542C302.583 56.1893 302.856 55.917 303.208 55.917ZM309.25 56.8008L312.533 60.0837H309.875C309.522 60.0837 309.25 59.8114 309.25 59.4587V56.8008ZM305.292 63.417C305.209 63.4158 305.127 63.4311 305.05 63.462C304.973 63.4929 304.903 63.5387 304.844 63.5969C304.785 63.655 304.738 63.7243 304.706 63.8008C304.674 63.8772 304.658 63.9592 304.658 64.042C304.658 64.1248 304.674 64.2068 304.706 64.2832C304.738 64.3596 304.785 64.4289 304.844 64.4871C304.903 64.5452 304.973 64.5911 305.05 64.622C305.127 64.6529 305.209 64.6682 305.292 64.667H310.708C310.791 64.6682 310.874 64.6529 310.95 64.622C311.027 64.5911 311.097 64.5452 311.156 64.4871C311.215 64.4289 311.262 64.3596 311.294 64.2832C311.326 64.2068 311.342 64.1248 311.342 64.042C311.342 63.9592 311.326 63.8772 311.294 63.8008C311.262 63.7243 311.215 63.655 311.156 63.5969C311.097 63.5387 311.027 63.4929 310.95 63.462C310.874 63.4311 310.791 63.4158 310.708 63.417H305.292ZM305.292 66.3337C305.209 66.3325 305.127 66.3478 305.05 66.3787C304.973 66.4096 304.903 66.4554 304.844 66.5136C304.785 66.5717 304.738 66.641 304.706 66.7174C304.674 66.7938 304.658 66.8758 304.658 66.9587C304.658 67.0415 304.674 67.1235 304.706 67.1999C304.738 67.2763 304.785 67.3456 304.844 67.4038C304.903 67.4619 304.973 67.5078 305.05 67.5386C305.127 67.5695 305.209 67.5848 305.292 67.5837H309.042C309.125 67.5848 309.207 67.5695 309.284 67.5386C309.361 67.5078 309.431 67.4619 309.49 67.4038C309.548 67.3456 309.595 67.2763 309.627 67.1999C309.659 67.1235 309.676 67.0415 309.676 66.9587C309.676 66.8758 309.659 66.7938 309.627 66.7174C309.595 66.641 309.548 66.5717 309.49 66.5136C309.431 66.4554 309.361 66.4096 309.284 66.3787C309.207 66.3478 309.125 66.3325 309.042 66.3337H305.292Z" fill="#181D27"/>
</g>
<path d="M200 85V87H176V85H200ZM210 75V51C210 45.4772 205.523 41 200 41H176C170.477 41 166 45.4772 166 51V75C166 80.5228 170.477 85 176 85V87C169.373 87 164 81.6274 164 75V51C164 44.3726 169.373 39 176 39H200C206.627 39 212 44.3726 212 51V75C212 81.6274 206.627 87 200 87V85C205.523 85 210 80.5228 210 75Z" fill="#27727F"/>
<g filter="url(#filter5_dii_16591_1894)">
<path d="M153 83C153 78.5817 156.582 75 161 75H215C219.418 75 223 78.5817 223 83V99C223 103.418 219.418 107 215 107H161C156.582 107 153 103.418 153 99V83Z" fill="#27727F"/>
<path d="M161 76H215C218.866 76 222 79.134 222 83V99C222 102.866 218.866 106 215 106H161C157.134 106 154 102.866 154 99V83C154 79.134 157.134 76 161 76Z" stroke="url(#paint0_linear_16591_1894)" stroke-width="2"/>
<path d="M164.316 96V85.8182H167.756C168.555 85.8182 169.208 85.9624 169.715 86.2507C170.226 86.5357 170.603 86.9219 170.849 87.4091C171.094 87.8963 171.217 88.4399 171.217 89.0398C171.217 89.6397 171.094 90.1849 170.849 90.6754C170.607 91.166 170.232 91.5571 169.725 91.8487C169.218 92.1371 168.568 92.2812 167.776 92.2812H165.31V91.1875H167.736C168.283 91.1875 168.722 91.093 169.054 90.9041C169.385 90.7152 169.626 90.46 169.775 90.1385C169.927 89.8137 170.003 89.4474 170.003 89.0398C170.003 88.6321 169.927 88.2675 169.775 87.946C169.626 87.6245 169.384 87.3726 169.049 87.1903C168.714 87.0047 168.27 86.9119 167.717 86.9119H165.549V96H164.316ZM175.291 96.179C174.807 96.179 174.368 96.0878 173.973 95.9055C173.579 95.7199 173.266 95.4531 173.034 95.1051C172.802 94.7538 172.686 94.3295 172.686 93.8324C172.686 93.3949 172.772 93.0402 172.944 92.7685C173.117 92.4934 173.347 92.2779 173.635 92.1222C173.924 91.9664 174.242 91.8504 174.59 91.7741C174.941 91.6946 175.294 91.6316 175.649 91.5852C176.113 91.5256 176.489 91.4808 176.777 91.451C177.069 91.4179 177.281 91.3632 177.414 91.2869C177.55 91.2107 177.617 91.0781 177.617 90.8892V90.8494C177.617 90.3589 177.483 89.9777 177.215 89.706C176.95 89.4342 176.547 89.2983 176.007 89.2983C175.447 89.2983 175.007 89.4209 174.689 89.6662C174.371 89.9115 174.147 90.1733 174.018 90.4517L172.904 90.054C173.103 89.59 173.368 89.2287 173.7 88.9702C174.035 88.7083 174.399 88.526 174.794 88.4233C175.191 88.3172 175.582 88.2642 175.967 88.2642C176.212 88.2642 176.494 88.294 176.812 88.3537C177.134 88.41 177.443 88.5277 177.742 88.7067C178.043 88.8857 178.294 89.1558 178.492 89.517C178.691 89.8783 178.791 90.3622 178.791 90.9688V96H177.617V94.9659H177.558C177.478 95.1316 177.346 95.3089 177.16 95.4979C176.974 95.6868 176.728 95.8475 176.419 95.9801C176.111 96.1127 175.735 96.179 175.291 96.179ZM175.47 95.125C175.934 95.125 176.325 95.0339 176.643 94.8516C176.965 94.6693 177.206 94.4339 177.369 94.1456C177.535 93.8572 177.617 93.554 177.617 93.2358V92.1619C177.568 92.2216 177.458 92.2763 177.289 92.326C177.124 92.3724 176.931 92.4138 176.713 92.4503C176.497 92.4834 176.287 92.5133 176.081 92.5398C175.879 92.563 175.715 92.5829 175.589 92.5994C175.284 92.6392 174.999 92.7038 174.734 92.7933C174.472 92.8795 174.26 93.0104 174.098 93.1861C173.938 93.3584 173.859 93.5937 173.859 93.892C173.859 94.2997 174.01 94.608 174.311 94.8168C174.616 95.0223 175.002 95.125 175.47 95.125ZM186.341 90.0739L185.287 90.3722C185.221 90.1965 185.123 90.0258 184.994 89.8601C184.868 89.6911 184.696 89.5518 184.477 89.4425C184.258 89.3331 183.978 89.2784 183.637 89.2784C183.169 89.2784 182.78 89.3861 182.468 89.6016C182.16 89.8137 182.006 90.0838 182.006 90.4119C182.006 90.7036 182.112 90.9339 182.324 91.103C182.536 91.272 182.868 91.4129 183.319 91.5256L184.452 91.804C185.135 91.9697 185.644 92.2232 185.978 92.5646C186.313 92.9027 186.481 93.3385 186.481 93.8722C186.481 94.3097 186.355 94.7008 186.103 95.0455C185.854 95.3902 185.506 95.6619 185.059 95.8608C184.611 96.0597 184.091 96.1591 183.498 96.1591C182.719 96.1591 182.074 95.9901 181.564 95.652C181.053 95.3139 180.73 94.8201 180.594 94.1705L181.708 93.892C181.814 94.303 182.014 94.6113 182.309 94.8168C182.608 95.0223 182.997 95.125 183.478 95.125C184.025 95.125 184.459 95.009 184.78 94.777C185.105 94.5417 185.267 94.2599 185.267 93.9318C185.267 93.6667 185.175 93.4446 184.989 93.2656C184.803 93.0833 184.518 92.9474 184.134 92.858L182.861 92.5597C182.162 92.3939 181.648 92.1371 181.32 91.7891C180.995 91.4377 180.833 90.9986 180.833 90.4716C180.833 90.0407 180.954 89.6596 181.196 89.3281C181.441 88.9967 181.774 88.7365 182.195 88.5476C182.619 88.3587 183.1 88.2642 183.637 88.2642C184.392 88.2642 184.986 88.4299 185.417 88.7614C185.851 89.0928 186.159 89.5303 186.341 90.0739ZM191.568 88.3636V89.358H187.61V88.3636H191.568ZM188.764 86.5341H189.937V93.8125C189.937 94.1439 189.985 94.3925 190.081 94.5582C190.181 94.7206 190.307 94.83 190.459 94.8864C190.615 94.9394 190.779 94.9659 190.951 94.9659C191.081 94.9659 191.187 94.9593 191.269 94.946C191.352 94.9295 191.419 94.9162 191.468 94.9062L191.707 95.9602C191.627 95.9901 191.516 96.0199 191.374 96.0497C191.231 96.0829 191.051 96.0994 190.832 96.0994C190.501 96.0994 190.176 96.0282 189.858 95.8857C189.543 95.7431 189.281 95.526 189.072 95.2344C188.867 94.9427 188.764 94.5748 188.764 94.1307V86.5341ZM196.452 96.1591C195.717 96.1591 195.082 95.9967 194.548 95.6719C194.018 95.3438 193.609 94.8864 193.32 94.2997C193.035 93.7098 192.893 93.0237 192.893 92.2415C192.893 91.4593 193.035 90.7699 193.32 90.1733C193.609 89.5734 194.01 89.1061 194.523 88.7713C195.04 88.4332 195.644 88.2642 196.333 88.2642C196.731 88.2642 197.123 88.3305 197.511 88.4631C197.899 88.5956 198.252 88.8111 198.57 89.1094C198.888 89.4044 199.142 89.7955 199.331 90.2827C199.52 90.7699 199.614 91.3698 199.614 92.0824V92.5795H193.728V91.5653H198.421C198.421 91.1345 198.335 90.75 198.163 90.4119C197.994 90.0739 197.752 89.8071 197.437 89.6115C197.125 89.416 196.757 89.3182 196.333 89.3182C195.866 89.3182 195.461 89.4342 195.12 89.6662C194.782 89.8949 194.522 90.1932 194.339 90.5611C194.157 90.929 194.066 91.3234 194.066 91.7443V92.4205C194.066 92.9972 194.165 93.486 194.364 93.8871C194.566 94.2848 194.847 94.5881 195.204 94.7969C195.562 95.0024 195.978 95.1051 196.452 95.1051C196.761 95.1051 197.039 95.062 197.288 94.9759C197.539 94.8864 197.757 94.7538 197.939 94.5781C198.121 94.3991 198.262 94.1771 198.361 93.9119L199.495 94.2301C199.376 94.6146 199.175 94.9527 198.893 95.2443C198.612 95.5327 198.264 95.758 197.849 95.9205C197.435 96.0795 196.969 96.1591 196.452 96.1591ZM204.283 96.1591C203.646 96.1591 203.084 95.9983 202.597 95.6768C202.11 95.352 201.729 94.8946 201.454 94.3047C201.179 93.7114 201.041 93.0104 201.041 92.2017C201.041 91.3996 201.179 90.7036 201.454 90.1136C201.729 89.5237 202.112 89.0679 202.602 88.7464C203.093 88.425 203.659 88.2642 204.302 88.2642C204.8 88.2642 205.192 88.3471 205.481 88.5128C205.772 88.6752 205.994 88.8608 206.147 89.0696C206.303 89.2751 206.424 89.4441 206.51 89.5767H206.609V85.8182H207.783V96H206.649V94.8267H206.51C206.424 94.9659 206.301 95.1416 206.142 95.3537C205.983 95.5625 205.756 95.7498 205.461 95.9155C205.166 96.0779 204.773 96.1591 204.283 96.1591ZM204.442 95.1051C204.912 95.1051 205.31 94.9825 205.635 94.7372C205.96 94.4886 206.207 94.1456 206.376 93.7081C206.545 93.2673 206.629 92.7585 206.629 92.1818C206.629 91.6117 206.546 91.1129 206.381 90.6854C206.215 90.2545 205.97 89.9197 205.645 89.6811C205.32 89.4392 204.919 89.3182 204.442 89.3182C203.945 89.3182 203.53 89.4458 203.199 89.701C202.871 89.9529 202.624 90.2959 202.458 90.7301C202.296 91.161 202.214 91.6449 202.214 92.1818C202.214 92.7254 202.297 93.2192 202.463 93.6634C202.632 94.1042 202.881 94.4555 203.209 94.7173C203.54 94.9759 203.951 95.1051 204.442 95.1051ZM211.646 85.8182L211.546 93.1364H210.393L210.293 85.8182H211.646ZM210.969 96.0795C210.724 96.0795 210.514 95.9917 210.338 95.8161C210.162 95.6404 210.074 95.4299 210.074 95.1847C210.074 94.9394 210.162 94.7289 210.338 94.5533C210.514 94.3776 210.724 94.2898 210.969 94.2898C211.215 94.2898 211.425 94.3776 211.601 94.5533C211.776 94.7289 211.864 94.9394 211.864 95.1847C211.864 95.3471 211.823 95.4962 211.74 95.6321C211.66 95.768 211.553 95.8774 211.417 95.9602C211.284 96.0398 211.135 96.0795 210.969 96.0795Z" fill="white"/>
</g>
<path opacity="0.6" d="M132.905 145V131.909H134.49V137.739H141.47V131.909H143.055V145H141.47V139.145H134.49V145H132.905ZM150.141 145.205C149.195 145.205 148.379 144.996 147.693 144.578C147.011 144.156 146.484 143.568 146.114 142.814C145.747 142.055 145.564 141.173 145.564 140.168C145.564 139.162 145.747 138.276 146.114 137.509C146.484 136.737 147 136.136 147.661 135.706C148.325 135.271 149.101 135.054 149.987 135.054C150.499 135.054 151.004 135.139 151.502 135.31C152.001 135.48 152.455 135.757 152.864 136.141C153.273 136.52 153.599 137.023 153.842 137.649C154.085 138.276 154.206 139.047 154.206 139.963V140.602H146.638V139.298H152.672C152.672 138.744 152.561 138.25 152.34 137.815C152.122 137.381 151.811 137.038 151.406 136.786C151.006 136.535 150.533 136.409 149.987 136.409C149.386 136.409 148.867 136.558 148.428 136.857C147.993 137.151 147.658 137.534 147.424 138.007C147.19 138.48 147.073 138.987 147.073 139.528V140.398C147.073 141.139 147.2 141.768 147.456 142.283C147.716 142.795 148.076 143.185 148.536 143.453C148.997 143.717 149.531 143.849 150.141 143.849C150.537 143.849 150.895 143.794 151.215 143.683C151.538 143.568 151.818 143.398 152.052 143.172C152.286 142.942 152.467 142.656 152.595 142.315L154.053 142.724C153.899 143.219 153.641 143.653 153.279 144.028C152.917 144.399 152.47 144.689 151.937 144.898C151.404 145.102 150.805 145.205 150.141 145.205ZM158.009 131.909V145H156.501V131.909H158.009ZM162.281 131.909V145H160.772V131.909H162.281ZM169.032 145.205C168.146 145.205 167.368 144.994 166.699 144.572C166.035 144.15 165.515 143.56 165.14 142.801C164.769 142.043 164.584 141.156 164.584 140.142C164.584 139.119 164.769 138.227 165.14 137.464C165.515 136.701 166.035 136.109 166.699 135.687C167.368 135.265 168.146 135.054 169.032 135.054C169.919 135.054 170.694 135.265 171.359 135.687C172.028 136.109 172.548 136.701 172.919 137.464C173.294 138.227 173.481 139.119 173.481 140.142C173.481 141.156 173.294 142.043 172.919 142.801C172.548 143.56 172.028 144.15 171.359 144.572C170.694 144.994 169.919 145.205 169.032 145.205ZM169.032 143.849C169.706 143.849 170.26 143.677 170.694 143.332C171.129 142.987 171.451 142.533 171.66 141.97C171.868 141.408 171.973 140.798 171.973 140.142C171.973 139.486 171.868 138.874 171.66 138.308C171.451 137.741 171.129 137.283 170.694 136.933C170.26 136.584 169.706 136.409 169.032 136.409C168.359 136.409 167.805 136.584 167.37 136.933C166.936 137.283 166.614 137.741 166.405 138.308C166.196 138.874 166.092 139.486 166.092 140.142C166.092 140.798 166.196 141.408 166.405 141.97C166.614 142.533 166.936 142.987 167.37 143.332C167.805 143.677 168.359 143.849 169.032 143.849ZM191.585 136H190C189.906 135.544 189.742 135.143 189.508 134.798C189.278 134.453 188.996 134.163 188.664 133.929C188.336 133.69 187.972 133.511 187.571 133.392C187.17 133.273 186.753 133.213 186.318 133.213C185.525 133.213 184.807 133.413 184.164 133.814C183.525 134.214 183.016 134.805 182.636 135.585C182.261 136.364 182.074 137.321 182.074 138.455C182.074 139.588 182.261 140.545 182.636 141.325C183.016 142.104 183.525 142.695 184.164 143.095C184.807 143.496 185.525 143.696 186.318 143.696C186.753 143.696 187.17 143.636 187.571 143.517C187.972 143.398 188.336 143.221 188.664 142.987C188.996 142.748 189.278 142.456 189.508 142.111C189.742 141.761 189.906 141.361 190 140.909H191.585C191.466 141.578 191.248 142.177 190.933 142.705C190.618 143.234 190.226 143.683 189.757 144.054C189.288 144.42 188.762 144.7 188.178 144.891C187.599 145.083 186.979 145.179 186.318 145.179C185.202 145.179 184.209 144.906 183.339 144.361C182.47 143.815 181.786 143.04 181.288 142.034C180.789 141.028 180.54 139.835 180.54 138.455C180.54 137.074 180.789 135.881 181.288 134.875C181.786 133.869 182.47 133.094 183.339 132.548C184.209 132.003 185.202 131.73 186.318 131.73C186.979 131.73 187.599 131.826 188.178 132.018C188.762 132.21 189.288 132.491 189.757 132.862C190.226 133.228 190.618 133.675 190.933 134.204C191.248 134.728 191.466 135.327 191.585 136ZM195.451 131.909V145H193.942V131.909H195.451ZM198.214 145V135.182H199.722V145H198.214ZM198.981 133.545C198.687 133.545 198.433 133.445 198.22 133.245C198.011 133.045 197.907 132.804 197.907 132.523C197.907 132.241 198.011 132.001 198.22 131.8C198.433 131.6 198.687 131.5 198.981 131.5C199.275 131.5 199.526 131.6 199.735 131.8C199.948 132.001 200.055 132.241 200.055 132.523C200.055 132.804 199.948 133.045 199.735 133.245C199.526 133.445 199.275 133.545 198.981 133.545ZM202.485 148.682V135.182H203.943V136.741H204.122C204.232 136.571 204.386 136.354 204.582 136.089C204.782 135.821 205.068 135.582 205.438 135.374C205.813 135.161 206.32 135.054 206.96 135.054C207.786 135.054 208.515 135.261 209.146 135.674C209.776 136.087 210.269 136.673 210.622 137.432C210.976 138.19 211.153 139.085 211.153 140.116C211.153 141.156 210.976 142.058 210.622 142.82C210.269 143.579 209.778 144.167 209.152 144.585C208.526 144.998 207.803 145.205 206.985 145.205C206.354 145.205 205.85 145.1 205.47 144.891C205.091 144.678 204.799 144.437 204.595 144.169C204.39 143.896 204.232 143.67 204.122 143.491H203.994V148.682H202.485ZM203.968 140.091C203.968 140.832 204.077 141.487 204.294 142.053C204.511 142.616 204.829 143.057 205.247 143.376C205.664 143.692 206.176 143.849 206.781 143.849C207.411 143.849 207.938 143.683 208.359 143.351C208.786 143.014 209.105 142.562 209.318 141.996C209.536 141.425 209.644 140.79 209.644 140.091C209.644 139.401 209.538 138.778 209.325 138.224C209.116 137.666 208.798 137.225 208.372 136.901C207.95 136.573 207.42 136.409 206.781 136.409C206.167 136.409 205.651 136.565 205.234 136.876C204.816 137.183 204.501 137.613 204.288 138.167C204.075 138.717 203.968 139.358 203.968 140.091ZM213.454 148.682V135.182H214.911V136.741H215.09C215.201 136.571 215.354 136.354 215.551 136.089C215.751 135.821 216.036 135.582 216.407 135.374C216.782 135.161 217.289 135.054 217.928 135.054C218.755 135.054 219.484 135.261 220.114 135.674C220.745 136.087 221.237 136.673 221.591 137.432C221.945 138.19 222.122 139.085 222.122 140.116C222.122 141.156 221.945 142.058 221.591 142.82C221.237 143.579 220.747 144.167 220.121 144.585C219.494 144.998 218.772 145.205 217.954 145.205C217.323 145.205 216.818 145.1 216.439 144.891C216.06 144.678 215.768 144.437 215.563 144.169C215.359 143.896 215.201 143.67 215.09 143.491H214.962V148.682H213.454ZM214.937 140.091C214.937 140.832 215.046 141.487 215.263 142.053C215.48 142.616 215.798 143.057 216.215 143.376C216.633 143.692 217.144 143.849 217.749 143.849C218.38 143.849 218.906 143.683 219.328 143.351C219.754 143.014 220.074 142.562 220.287 141.996C220.504 141.425 220.613 140.79 220.613 140.091C220.613 139.401 220.506 138.778 220.293 138.224C220.085 137.666 219.767 137.225 219.341 136.901C218.919 136.573 218.389 136.409 217.749 136.409C217.136 136.409 216.62 136.565 216.203 136.876C215.785 137.183 215.47 137.613 215.256 138.167C215.043 138.717 214.937 139.358 214.937 140.091ZM228.411 145.205C227.525 145.205 226.747 144.994 226.078 144.572C225.413 144.15 224.894 143.56 224.519 142.801C224.148 142.043 223.962 141.156 223.962 140.142C223.962 139.119 224.148 138.227 224.519 137.464C224.894 136.701 225.413 136.109 226.078 135.687C226.747 135.265 227.525 135.054 228.411 135.054C229.298 135.054 230.073 135.265 230.738 135.687C231.407 136.109 231.927 136.701 232.298 137.464C232.673 138.227 232.86 139.119 232.86 140.142C232.86 141.156 232.673 142.043 232.298 142.801C231.927 143.56 231.407 144.15 230.738 144.572C230.073 144.994 229.298 145.205 228.411 145.205ZM228.411 143.849C229.085 143.849 229.639 143.677 230.073 143.332C230.508 142.987 230.83 142.533 231.038 141.97C231.247 141.408 231.352 140.798 231.352 140.142C231.352 139.486 231.247 138.874 231.038 138.308C230.83 137.741 230.508 137.283 230.073 136.933C229.639 136.584 229.085 136.409 228.411 136.409C227.738 136.409 227.184 136.584 226.749 136.933C226.315 137.283 225.993 137.741 225.784 138.308C225.575 138.874 225.471 139.486 225.471 140.142C225.471 140.798 225.575 141.408 225.784 141.97C225.993 142.533 226.315 142.987 226.749 143.332C227.184 143.677 227.738 143.849 228.411 143.849ZM237.157 131.909L237.029 141.318H235.546L235.419 131.909H237.157ZM236.288 145.102C235.973 145.102 235.702 144.989 235.476 144.763C235.25 144.538 235.137 144.267 235.137 143.952C235.137 143.636 235.25 143.366 235.476 143.14C235.702 142.914 235.973 142.801 236.288 142.801C236.603 142.801 236.874 142.914 237.1 143.14C237.326 143.366 237.438 143.636 237.438 143.952C237.438 144.161 237.385 144.352 237.279 144.527C237.176 144.702 237.038 144.842 236.863 144.949C236.693 145.051 236.501 145.102 236.288 145.102ZM242.372 127.69V149.219H241.093V127.69H242.372Z" fill="#181D27"/>
<defs>
<filter id="filter0_dii_16591_1894" x="46" y="42" width="44" height="44" filterUnits="userSpaceOnUse" color-interpolation-filters="sRGB">
<feFlood flood-opacity="0" result="BackgroundImageFix"/>
<feColorMatrix in="SourceAlpha" type="matrix" values="0 0 0 0 0 0 0 0 0 0 0 0 0 0 0 0 0 0 127 0" result="hardAlpha"/>
<feOffset dy="1"/>
<feGaussianBlur stdDeviation="1"/>
<feColorMatrix type="matrix" values="0 0 0 0 0.0392157 0 0 0 0 0.0496732 0 0 0 0 0.0705882 0 0 0 0.05 0"/>
<feBlend mode="normal" in2="BackgroundImageFix" result="effect1_dropShadow_16591_1894"/>
<feBlend mode="normal" in="SourceGraphic" in2="effect1_dropShadow_16591_1894" result="shape"/>
<feColorMatrix in="SourceAlpha" type="matrix" values="0 0 0 0 0 0 0 0 0 0 0 0 0 0 0 0 0 0 127 0" result="hardAlpha"/>
<feOffset dy="-2"/>
<feComposite in2="hardAlpha" operator="arithmetic" k2="-1" k3="1"/>
<feColorMatrix type="matrix" values="0 0 0 0 0.0392157 0 0 0 0 0.0496732 0 0 0 0 0.0705882 0 0 0 0.05 0"/>
<feBlend mode="normal" in2="shape" result="effect2_innerShadow_16591_1894"/>
<feColorMatrix in="SourceAlpha" type="matrix" values="0 0 0 0 0 0 0 0 0 0 0 0 0 0 0 0 0 0 127 0" result="hardAlpha"/>
<feMorphology radius="1" operator="erode" in="SourceAlpha" result="effect3_innerShadow_16591_1894"/>
<feOffset/>
<feComposite in2="hardAlpha" operator="arithmetic" k2="-1" k3="1"/>
<feColorMatrix type="matrix" values="0 0 0 0 0.0392157 0 0 0 0 0.0496732 0 0 0 0 0.0705882 0 0 0 0.18 0"/>
<feBlend mode="normal" in2="effect2_innerShadow_16591_1894" result="effect3_innerShadow_16591_1894"/>
</filter>
<filter id="filter1_dii_16591_1894" x="106" y="42" width="44" height="44" filterUnits="userSpaceOnUse" color-interpolation-filters="sRGB">
<feFlood flood-opacity="0" result="BackgroundImageFix"/>
<feColorMatrix in="SourceAlpha" type="matrix" values="0 0 0 0 0 0 0 0 0 0 0 0 0 0 0 0 0 0 127 0" result="hardAlpha"/>
<feOffset dy="1"/>
<feGaussianBlur stdDeviation="1"/>
<feColorMatrix type="matrix" values="0 0 0 0 0.0392157 0 0 0 0 0.0496732 0 0 0 0 0.0705882 0 0 0 0.05 0"/>
<feBlend mode="normal" in2="BackgroundImageFix" result="effect1_dropShadow_16591_1894"/>
<feBlend mode="normal" in="SourceGraphic" in2="effect1_dropShadow_16591_1894" result="shape"/>
<feColorMatrix in="SourceAlpha" type="matrix" values="0 0 0 0 0 0 0 0 0 0 0 0 0 0 0 0 0 0 127 0" result="hardAlpha"/>
<feOffset dy="-2"/>
<feComposite in2="hardAlpha" operator="arithmetic" k2="-1" k3="1"/>
<feColorMatrix type="matrix" values="0 0 0 0 0.0392157 0 0 0 0 0.0496732 0 0 0 0 0.0705882 0 0 0 0.05 0"/>
<feBlend mode="normal" in2="shape" result="effect2_innerShadow_16591_1894"/>
<feColorMatrix in="SourceAlpha" type="matrix" values="0 0 0 0 0 0 0 0 0 0 0 0 0 0 0 0 0 0 127 0" result="hardAlpha"/>
<feMorphology radius="1" operator="erode" in="SourceAlpha" result="effect3_innerShadow_16591_1894"/>
<feOffset/>
<feComposite in2="hardAlpha" operator="arithmetic" k2="-1" k3="1"/>
<feColorMatrix type="matrix" values="0 0 0 0 0.0392157 0 0 0 0 0.0496732 0 0 0 0 0.0705882 0 0 0 0.18 0"/>
<feBlend mode="normal" in2="effect2_innerShadow_16591_1894" result="effect3_innerShadow_16591_1894"/>
</filter>
<filter id="filter2_dd_16591_1894" x="164" y="39" width="48" height="48" filterUnits="userSpaceOnUse" color-interpolation-filters="sRGB">
<feFlood flood-opacity="0" result="BackgroundImageFix"/>
<feColorMatrix in="SourceAlpha" type="matrix" values="0 0 0 0 0 0 0 0 0 0 0 0 0 0 0 0 0 0 127 0" result="hardAlpha"/>
<feMorphology radius="4" operator="dilate" in="SourceAlpha" result="effect1_dropShadow_16591_1894"/>
<feOffset/>
<feComposite in2="hardAlpha" operator="out"/>
<feColorMatrix type="matrix" values="0 0 0 0 0.152941 0 0 0 0 0.447059 0 0 0 0 0.498039 0 0 0 1 0"/>
<feBlend mode="normal" in2="BackgroundImageFix" result="effect1_dropShadow_16591_1894"/>
<feColorMatrix in="SourceAlpha" type="matrix" values="0 0 0 0 0 0 0 0 0 0 0 0 0 0 0 0 0 0 127 0" result="hardAlpha"/>
<feMorphology radius="2" operator="dilate" in="SourceAlpha" result="effect2_dropShadow_16591_1894"/>
<feOffset/>
<feComposite in2="hardAlpha" operator="out"/>
<feColorMatrix type="matrix" values="0 0 0 0 1 0 0 0 0 1 0 0 0 0 1 0 0 0 1 0"/>
<feBlend mode="normal" in2="effect1_dropShadow_16591_1894" result="effect2_dropShadow_16591_1894"/>
<feBlend mode="normal" in="SourceGraphic" in2="effect2_dropShadow_16591_1894" result="shape"/>
</filter>
<filter id="filter3_dii_16591_1894" x="226" y="42" width="44" height="44" filterUnits="userSpaceOnUse" color-interpolation-filters="sRGB">
<feFlood flood-opacity="0" result="BackgroundImageFix"/>
<feColorMatrix in="SourceAlpha" type="matrix" values="0 0 0 0 0 0 0 0 0 0 0 0 0 0 0 0 0 0 127 0" result="hardAlpha"/>
<feOffset dy="1"/>
<feGaussianBlur stdDeviation="1"/>
<feColorMatrix type="matrix" values="0 0 0 0 0.0392157 0 0 0 0 0.0496732 0 0 0 0 0.0705882 0 0 0 0.05 0"/>
<feBlend mode="normal" in2="BackgroundImageFix" result="effect1_dropShadow_16591_1894"/>
<feBlend mode="normal" in="SourceGraphic" in2="effect1_dropShadow_16591_1894" result="shape"/>
<feColorMatrix in="SourceAlpha" type="matrix" values="0 0 0 0 0 0 0 0 0 0 0 0 0 0 0 0 0 0 127 0" result="hardAlpha"/>
<feOffset dy="-2"/>
<feComposite in2="hardAlpha" operator="arithmetic" k2="-1" k3="1"/>
<feColorMatrix type="matrix" values="0 0 0 0 0.0392157 0 0 0 0 0.0496732 0 0 0 0 0.0705882 0 0 0 0.05 0"/>
<feBlend mode="normal" in2="shape" result="effect2_innerShadow_16591_1894"/>
<feColorMatrix in="SourceAlpha" type="matrix" values="0 0 0 0 0 0 0 0 0 0 0 0 0 0 0 0 0 0 127 0" result="hardAlpha"/>
<feMorphology radius="1" operator="erode" in="SourceAlpha" result="effect3_innerShadow_16591_1894"/>
<feOffset/>
<feComposite in2="hardAlpha" operator="arithmetic" k2="-1" k3="1"/>
<feColorMatrix type="matrix" values="0 0 0 0 0.0392157 0 0 0 0 0.0496732 0 0 0 0 0.0705882 0 0 0 0.18 0"/>
<feBlend mode="normal" in2="effect2_innerShadow_16591_1894" result="effect3_innerShadow_16591_1894"/>
</filter>
<filter id="filter4_dii_16591_1894" x="286" y="42" width="44" height="44" filterUnits="userSpaceOnUse" color-interpolation-filters="sRGB">
<feFlood flood-opacity="0" result="BackgroundImageFix"/>
<feColorMatrix in="SourceAlpha" type="matrix" values="0 0 0 0 0 0 0 0 0 0 0 0 0 0 0 0 0 0 127 0" result="hardAlpha"/>
<feOffset dy="1"/>
<feGaussianBlur stdDeviation="1"/>
<feColorMatrix type="matrix" values="0 0 0 0 0.0392157 0 0 0 0 0.0496732 0 0 0 0 0.0705882 0 0 0 0.05 0"/>
<feBlend mode="normal" in2="BackgroundImageFix" result="effect1_dropShadow_16591_1894"/>
<feBlend mode="normal" in="SourceGraphic" in2="effect1_dropShadow_16591_1894" result="shape"/>
<feColorMatrix in="SourceAlpha" type="matrix" values="0 0 0 0 0 0 0 0 0 0 0 0 0 0 0 0 0 0 127 0" result="hardAlpha"/>
<feOffset dy="-2"/>
<feComposite in2="hardAlpha" operator="arithmetic" k2="-1" k3="1"/>
<feColorMatrix type="matrix" values="0 0 0 0 0.0392157 0 0 0 0 0.0496732 0 0 0 0 0.0705882 0 0 0 0.05 0"/>
<feBlend mode="normal" in2="shape" result="effect2_innerShadow_16591_1894"/>
<feColorMatrix in="SourceAlpha" type="matrix" values="0 0 0 0 0 0 0 0 0 0 0 0 0 0 0 0 0 0 127 0" result="hardAlpha"/>
<feMorphology radius="1" operator="erode" in="SourceAlpha" result="effect3_innerShadow_16591_1894"/>
<feOffset/>
<feComposite in2="hardAlpha" operator="arithmetic" k2="-1" k3="1"/>
<feColorMatrix type="matrix" values="0 0 0 0 0.0392157 0 0 0 0 0.0496732 0 0 0 0 0.0705882 0 0 0 0.18 0"/>
<feBlend mode="normal" in2="effect2_innerShadow_16591_1894" result="effect3_innerShadow_16591_1894"/>
</filter>
<filter id="filter5_dii_16591_1894" x="151" y="74" width="74" height="36" filterUnits="userSpaceOnUse" color-interpolation-filters="sRGB">
<feFlood flood-opacity="0" result="BackgroundImageFix"/>
<feColorMatrix in="SourceAlpha" type="matrix" values="0 0 0 0 0 0 0 0 0 0 0 0 0 0 0 0 0 0 127 0" result="hardAlpha"/>
<feOffset dy="1"/>
<feGaussianBlur stdDeviation="1"/>
<feColorMatrix type="matrix" values="0 0 0 0 0.0392157 0 0 0 0 0.0496732 0 0 0 0 0.0705882 0 0 0 0.05 0"/>
<feBlend mode="normal" in2="BackgroundImageFix" result="effect1_dropShadow_16591_1894"/>
<feBlend mode="normal" in="SourceGraphic" in2="effect1_dropShadow_16591_1894" result="shape"/>
<feColorMatrix in="SourceAlpha" type="matrix" values="0 0 0 0 0 0 0 0 0 0 0 0 0 0 0 0 0 0 127 0" result="hardAlpha"/>
<feOffset dy="-2"/>
<feComposite in2="hardAlpha" operator="arithmetic" k2="-1" k3="1"/>
<feColorMatrix type="matrix" values="0 0 0 0 0.0392157 0 0 0 0 0.0496732 0 0 0 0 0.0705882 0 0 0 0.05 0"/>
<feBlend mode="normal" in2="shape" result="effect2_innerShadow_16591_1894"/>
<feColorMatrix in="SourceAlpha" type="matrix" values="0 0 0 0 0 0 0 0 0 0 0 0 0 0 0 0 0 0 127 0" result="hardAlpha"/>
<feMorphology radius="1" operator="erode" in="SourceAlpha" result="effect3_innerShadow_16591_1894"/>
<feOffset/>
<feComposite in2="hardAlpha" operator="arithmetic" k2="-1" k3="1"/>
<feColorMatrix type="matrix" values="0 0 0 0 0.0392157 0 0 0 0 0.0496732 0 0 0 0 0.0705882 0 0 0 0.18 0"/>
<feBlend mode="normal" in2="effect2_innerShadow_16591_1894" result="effect3_innerShadow_16591_1894"/>
</filter>
<linearGradient id="paint0_linear_16591_1894" x1="188" y1="75" x2="188" y2="107" gradientUnits="userSpaceOnUse">
<stop stop-color="white" stop-opacity="0.12"/>
<stop offset="1" stop-color="white" stop-opacity="0"/>
</linearGradient>
</defs>
</svg>
