<svg width="184" height="184" viewBox="0 0 184 184" fill="none" xmlns="http://www.w3.org/2000/svg">
<g clip-path="url(#clip0_16646_3226)">
<rect width="184" height="184" fill="white"/>
<path d="M110.947 124.348C75.853 116.428 80.086 82.2908 94.8335 88.9818C106.696 93.7713 117.856 94.8603 126.923 94.3007C124.541 96.68 124.552 102.419 125.415 108.235C126.096 112.821 127.305 117.453 128.289 120.525C126.832 122.573 121.324 126.206 110.947 124.348Z" fill="#023939"/>
<path d="M100.295 110.693C94.8333 108.836 91.1009 115.291 89.9175 118.75L95.243 124.075C99.2029 120.388 105.757 112.55 100.295 110.693Z" fill="white" stroke="#023939" stroke-width="2.18481" stroke-linecap="round"/>
<path d="M119.003 114.107C117.146 115.527 119.777 123.802 121.324 127.762C125.375 130.539 132.849 134.289 129.244 125.441C124.738 114.38 121.324 112.332 119.003 114.107Z" fill="white" stroke="#023939" stroke-width="2.18481" stroke-linecap="round"/>
<path d="M104.802 101.408C100.105 99.8784 103.937 91.7582 106.44 87.8892C110.992 85.932 119.167 83.7108 115.453 90.4837C110.81 98.9498 110.674 103.319 104.802 101.408Z" fill="white" stroke="#023939" stroke-width="2.18481" stroke-linecap="round"/>
<path d="M145.767 97.5842C142.053 98.7858 139.395 92.5318 138.53 89.2546C139.713 86.1139 142.817 81.1708 145.767 86.5236C149.454 93.2146 150.41 96.0821 145.767 97.5842Z" fill="white" stroke="#023939" stroke-width="2.18481" stroke-linecap="round"/>
<path d="M60.8924 45.197C67.7745 42.466 71.9838 52.1583 72.7121 57.5748C73.9866 59.2134 73.5916 62.2386 65.9447 59.3983C56.3862 55.848 52.2896 48.6108 60.8924 45.197Z" fill="#FDAE49" stroke="#023939" stroke-width="2.18481" stroke-linecap="round"/>
<path d="M109.389 40.2676C113.431 45.7015 105.865 51.715 101.251 53.6407C100.105 55.1546 97.3392 55.5218 98.0383 48.0934C98.9122 38.8078 104.337 33.4752 109.389 40.2676Z" fill="#FDAE49" stroke="#023939" stroke-width="2.18481" stroke-linecap="round"/>
<path d="M46.7677 169C43.3994 166.724 37.9192 153.843 42.9443 120.525L52.2297 125.577L29.9719 109.601C28.2423 108.19 26.0666 103.947 31.2009 98.2669C36.8891 91.9736 42.899 93.7252 50.1815 99.2435C55.2794 85.0808 67.1138 55.9909 73.6682 52.9321C81.8613 49.1087 93.3316 46.5143 99.7494 47.197C106.167 47.8798 110.947 53.478 110.947 57.8477C130.883 48.4257 171.985 70.9566 146.04 89.9371C142.426 91.6998 135.642 93.7621 126.923 94.3002C117.856 94.8598 106.696 93.7708 94.8336 88.9813C80.0861 82.2903 75.853 116.428 110.947 124.348C121.324 126.205 126.832 122.573 128.289 120.525C127.305 117.453 126.096 112.82 125.415 108.235C129.832 106.187 141.234 102.609 151.502 104.685C156.555 106.05 159.149 119.296 149.044 123.529C140.96 126.915 133.751 132.131 131.156 134.316C133.525 143.056 136.978 162.228 131.839 169H98.657L97.7012 163.675C93.1538 163.463 84.495 162.727 78.9937 161.29L76.1261 169H46.7677Z" fill="#FDAE49"/>
<path d="M50.1815 99.2434C42.899 93.7252 36.8891 91.9736 31.2009 98.2669C26.0666 103.947 28.2423 108.19 29.9719 109.601L52.2297 125.577L42.9443 120.525C37.9192 153.843 43.3994 166.724 46.7677 169H76.1261L78.9937 161.29M50.1815 99.2434C51.1157 99.9514 52.0709 100.721 53.049 101.544C59.9312 107.334 54.0049 102.423 50.1815 99.2434ZM50.1815 99.2434C55.2794 85.0808 67.1138 55.9909 73.6682 52.9321C81.8613 49.1087 93.3315 46.5143 99.7494 47.197C106.167 47.8798 110.947 53.478 110.947 57.8477M110.947 57.8477C108.443 58.8946 103.245 61.5892 102.48 63.9925M110.947 57.8477C130.883 48.4257 171.985 70.9566 146.04 89.9371C142.426 91.6998 135.642 93.7621 126.923 94.3002C117.856 94.8598 106.696 93.7708 94.8336 88.9813C80.0861 82.2903 75.853 116.428 110.947 124.348C121.324 126.205 126.832 122.573 128.289 120.525C127.305 117.453 126.096 112.82 125.415 108.235C129.832 106.187 141.234 102.609 151.502 104.685C156.555 106.05 159.149 119.296 149.044 123.529C140.96 126.915 133.751 132.131 131.156 134.316C133.525 143.056 136.978 162.228 131.839 169H98.657L97.7012 163.675M97.7012 163.675C102.617 163.675 112.64 163.511 113.405 162.855M97.7012 163.675C93.1538 163.463 84.495 162.727 78.9937 161.29M75.1703 159.851C76.0573 160.393 77.3916 160.871 78.9937 161.29" stroke="#023939" stroke-width="2.18481" stroke-linecap="round"/>
<ellipse cx="81.5396" cy="65.4321" rx="2.04826" ry="3.68687" transform="rotate(-12.0879 81.5396 65.4321)" fill="#023939"/>
<ellipse cx="105.319" cy="57.331" rx="1.60084" ry="2.88152" transform="rotate(-12.0879 105.319 57.331)" fill="#023939"/>
<ellipse cx="115.993" cy="71.8511" rx="1.51038" ry="2.32596" transform="rotate(84.8424 115.993 71.8511)" fill="#023939"/>
<ellipse cx="137.487" cy="68.3894" rx="1.51038" ry="2.32596" transform="rotate(74.5643 137.487 68.3894)" fill="#023939"/>
<path d="M72.1658 145.241C66.6133 156.023 75.7616 158.987 82.9533 160.534C84.9195 161.954 101.342 162.036 109.308 161.9C114.224 161.035 124.246 157.53 125.011 150.43C125.967 141.554 114.983 130.493 94.9102 130.493C85.3205 130.493 77.1586 135.546 72.1658 145.241Z" fill="#EADBC0"/>
<path d="M155.593 168.407C156.196 168.407 156.686 168.897 156.686 169.5C156.686 170.103 156.196 170.593 155.593 170.593H29.0928C28.4895 170.593 28 170.103 28 169.5C28 168.897 28.4895 168.407 29.0928 168.407H155.593Z" fill="#023939"/>
</g>
<defs>
<clipPath id="clip0_16646_3226">
<rect width="184" height="184" fill="white"/>
</clipPath>
</defs>
</svg>
