<svg width="184" height="184" viewBox="0 0 184 184" fill="none" xmlns="http://www.w3.org/2000/svg">
<g clip-path="url(#clip0_16597_1737)">
<rect width="184" height="184" fill="white"/>
<path fill-rule="evenodd" clip-rule="evenodd" d="M82.7541 163.073C81.3181 163.057 71.8643 163.118 71.758 163.178C71.5811 163.277 71.5154 163.314 71.2953 165.671C70.9017 167.036 70.9907 167.087 70.006 168.22C69.7886 168.421 69.5708 168.622 69.3533 168.823C68.6059 169.265 68.2278 169.931 63.2507 170.016C52.4272 170.201 51.9243 169.905 46.6595 168.98C45.5155 168.489 45.5275 168.51 44.5038 167.839C44.2805 167.538 44.0572 167.237 43.8338 166.936C43.3508 165.965 43.3823 165.974 42.9051 165.004C41.8245 160.836 42.0553 160.816 41.302 156.552C37.993 137.817 39.5801 116.255 39.4084 110.422C41.1767 88.9416 39.3927 113.883 42.1307 79.5745C42.8566 79.4438 42.8553 61.6618 53.8999 41.5395C54.5387 40.3754 52.8628 40.3465 50.0157 38.1222C41.3986 31.3906 48.2433 21.2631 57.0035 24.749C61.6685 26.6053 61.4058 32.9344 63.1646 31.0193C64.1567 29.9391 69.7327 23.8667 79.2096 22.1451C88.8995 20.3847 93.9098 23.0228 94.7739 23.3196C96.3171 23.8502 96.2091 21.2254 96.2 21.0082C95.7921 11.0787 106.228 12.1827 109.354 17.7983C113.141 24.6021 106.115 29.5854 105.239 30.4852C104.876 30.8587 106.031 32.217 106.782 31.9666C107.728 31.6513 114.952 29.2431 118.839 28.8256C129.999 27.6267 140.718 30.9807 144.568 32.953C155.837 38.7259 157.322 47.4899 157.592 48.303C161.993 61.5503 154.32 70.2855 146.08 73.853C140.189 76.4033 137.987 74.6807 137.302 79.8499C136.536 85.6368 138.549 86.2863 138.954 86.7216C142.363 90.3827 143.434 98.8744 144.631 103.234C147.028 111.963 153.438 113.975 157.475 117.623C160.953 120.766 151.248 130.558 145.189 128.878C144.321 128.638 144.343 129.054 144.438 129.93C144.91 134.3 145.964 149.47 144.247 156.267C141.761 166.114 141.908 166.155 141.55 166.962L141.206 167.577C140.448 168.452 140.494 168.45 139.603 169.206C139.285 169.425 138.966 169.644 138.647 169.864C137.113 170.517 137.069 170.198 123.72 170.454C122.721 170.361 122.746 170.359 121.78 170.173L120.862 169.789C120.364 169.459 120.166 169.651 118.958 167.864C118.539 167.101 118.525 167.141 118.277 166.316C118.044 164.846 118.031 164.867 117.937 163.376C116.953 162.444 116.726 163.407 109.405 163.241C91.8952 162.845 91.9082 163.396 82.7534 163.073L82.7541 163.073Z" fill="#023939"/>
<path fill-rule="evenodd" clip-rule="evenodd" d="M70.0802 160.555C68.1043 161.379 69.1111 162.578 68.9086 164.396C68.6017 167.154 66.488 167.256 66.1723 167.269C65.8836 167.28 62.5707 167.411 62.5658 167.41C62.1792 167.317 62.177 165.226 62.1767 165.033C62.1747 163.345 60.6975 163.57 60.3812 163.815C59.378 164.594 59.9355 164.848 59.927 166.975C59.9244 167.659 58.5272 167.529 56.4239 167.539C54.9525 167.546 56.5777 163.676 54.4704 163.725C52.8489 163.764 53.449 166.923 53.4487 166.972C53.4448 167.798 47.2905 166.606 46.4892 165.855C45.6956 165.112 45.2301 164.675 43.2477 152.651C42.304 146.925 41.58 129.067 41.7539 126.343C42.4064 116.125 41.7539 113.882 41.7539 113.882C43.9999 91.9997 43.3533 91.7905 44.7057 81.1761C44.8107 80.3526 44.9681 79.4163 45.1004 78.2368C45.447 75.142 47.3386 58.2465 57.1677 41.2262C57.9635 39.8481 64.422 33.2615 66.6248 31.2343C74.8684 23.6474 86.9559 23.3642 92.4755 25.3284C97.3736 27.0712 103 32.729 103.18 33.0658C103.458 33.5863 100.06 35.2169 98.4442 36.1216C93.3877 38.9519 97.3623 39.9089 97.3863 39.9067C98.2228 39.8264 111.742 28.5594 132.148 31.851C143.94 33.7534 149.831 39.9804 150.987 41.2028C153.944 44.3285 160.168 57.2491 151.945 66.4823C143.215 76.2844 125.606 72.9857 124.032 72.7559C121.322 72.3596 102.838 61.0774 98.3271 68.4575C97.8873 69.1773 94.7482 74.524 98.1077 84.0556C104.461 102.08 117.791 97.498 121.472 96.5696C132.723 93.7312 134.716 90.8295 137.404 90.0876C138.996 89.6481 140.544 97.2428 141.889 103.27C144.493 114.945 155.513 117.881 155.488 119.516C155.468 120.886 152.015 116.639 151.686 118.869C151.396 120.833 155.913 120.22 153.626 122.446C152.596 123.448 150.094 120.14 149.387 121.787C148.877 122.975 150.925 123.863 150.934 123.87C152.138 124.725 148.181 126.298 147.79 126.416C146.406 126.834 144.417 125.831 144.234 125.652C143.492 124.92 142.636 108.341 139.017 98.052C137.982 95.1093 138.157 95.0442 137.997 94.8254C136.741 93.1048 134.25 97.378 134.206 97.7503C133.96 99.862 136.382 98.0682 136.775 99.6709C137.974 104.552 138.266 104.468 139.082 109.424C146.467 154.279 139.604 160.928 139.269 161.762C139.07 162.257 140.449 164.353 138.417 166.723C138.307 166.826 137.153 167.908 136.741 167.594C136.399 167.333 136.562 167.243 136.35 165.034C136.187 163.331 134.176 163.427 134.087 165.027C134.022 166.196 134.363 166.143 134.323 167.311C134.312 167.616 134.225 167.903 130.53 167.704C129.788 167.664 129.937 165.053 129.837 164.722C129.772 164.504 127.459 162.257 127.739 166.646C127.858 168.513 126.892 167.832 125.014 167.847C119.49 167.89 120.945 164.729 120.522 161.097C121.199 160.836 121.784 160.611 129.563 160.361C129.742 160.355 134.126 161.177 135.99 158.166C137.14 156.308 135.412 156.277 134.438 149.751C134.304 148.854 132.986 146.879 132.284 144.509C129.732 135.893 128.802 136.319 126.431 131.486C125.288 129.155 118.94 120.685 113.927 118.969C106.972 116.587 101.596 113.835 89.2009 121.377C88.0212 122.095 77.6876 128.382 76.0651 132.575C75.2052 134.798 67.1229 149.825 66.8605 157.552C66.79 159.633 69.5773 159.872 69.7493 160.025C69.904 160.163 69.9248 160.415 70.0795 160.553L70.0802 160.555Z" fill="#FDAE49"/>
<path fill-rule="evenodd" clip-rule="evenodd" d="M70.0802 160.555C69.9255 160.417 69.9047 160.165 69.7499 160.027C69.5783 159.874 66.7906 159.635 66.8612 157.554C66.8612 130.117 84.4706 114.823 101.647 114.823C117.882 114.823 136.01 129.596 136.706 158.117C134.842 161.128 129.743 160.357 129.564 160.363C121.784 160.613 121.2 160.838 120.523 161.099C119.501 159.942 115.243 160.887 104.532 160.554C95.7284 160.281 70.9622 160.501 70.0805 160.555L70.0802 160.555Z" fill="#EADBC0"/>
<path fill-rule="evenodd" clip-rule="evenodd" d="M56.7461 37.5951C55.7848 38.8509 55.016 38.2755 52.7563 36.7528C42.5125 29.8505 54.7709 22.6966 57.9519 29.1916C58.9206 31.1691 58.5757 31.3882 60.1872 32.8612C61.0191 33.6216 59.785 33.5201 56.7461 37.5951Z" fill="#FDAE49"/>
<path fill-rule="evenodd" clip-rule="evenodd" d="M104.187 27.8203C103.171 28.8407 102.928 29.223 101.865 28.2374C98.9146 25.5001 97.5245 25.8385 98.3739 23.9498C99.6584 21.0939 97.6496 16.9519 101.621 16.2296C103.719 15.8479 106.466 17.5491 107.194 19.695C108.655 24.0021 104.884 27.1132 104.187 27.8203Z" fill="#FDAE49"/>
<path fill-rule="evenodd" clip-rule="evenodd" d="M117.883 94.6335C117.36 94.679 111.504 95.1861 111.319 94.8513C110.278 92.9645 110.037 86.3376 115.929 87.5797C118.013 88.0189 118.997 90.2675 119.831 92.8569C120.34 94.4404 119.51 94.2564 117.883 94.6335Z" fill="white"/>
<path fill-rule="evenodd" clip-rule="evenodd" d="M114.611 54.8273C114.362 54.3796 112.022 50.1603 114.078 48.4513C116.42 46.5053 118.268 48.4705 118.567 48.9376C121.038 52.7909 118.933 60.5147 114.611 54.8273Z" fill="#023939"/>
<path fill-rule="evenodd" clip-rule="evenodd" d="M141.255 49.6341C139.589 46.8085 140.603 42.5433 143.232 43.0583C148.403 44.0712 145.923 55.1561 141.255 49.6341Z" fill="#023939"/>
<path fill-rule="evenodd" clip-rule="evenodd" d="M108.389 74.1234C108.041 73.9007 104.998 71.9489 106.176 69.4639C106.616 68.5351 111.641 69.9951 111.52 71.4138C111.241 74.6972 108.714 74.1887 108.389 74.1231V74.1234Z" fill="white"/>
<path fill-rule="evenodd" clip-rule="evenodd" d="M130.57 90.6297C128.031 92.0123 128.87 89.3443 127.034 85.9969C126.58 85.1692 128.849 83.2781 130.267 85.6789C130.354 85.8278 131.384 87.4516 131.781 88.974C132.058 90.0397 130.672 90.5569 130.57 90.6297Z" fill="white"/>
<path fill-rule="evenodd" clip-rule="evenodd" d="M88.0026 40.8143C90.5223 45.8035 82.3688 45.5535 83.6744 41.4814C84.147 40.0071 86.1476 38.71 88.0026 40.8143Z" fill="#023939"/>
<path fill-rule="evenodd" clip-rule="evenodd" d="M100.715 33.4362C103.107 37.8059 95.3668 37.587 96.6061 34.0205C97.0548 32.7293 98.9539 31.5932 100.715 33.4362Z" fill="#023939"/>
<path d="M29.44 78.4377C32.7844 76.0526 36.8393 77.2697 39.6716 78.5457C41.2303 79.248 42.7524 80.1209 44.099 80.9272C45.5055 81.7693 46.6339 82.4834 47.6325 83.0301C51.9194 85.3773 54.4237 86.4534 55.9703 86.9984C56.7327 87.267 57.2808 87.4131 57.7235 87.5205C58.0924 87.6099 58.6809 87.7339 59.1711 87.8973L57.5347 92.8081C57.3191 92.7363 57.1485 92.7076 56.5039 92.5513C55.9331 92.4129 55.2125 92.2198 54.2502 91.8808C52.4662 91.2522 49.9185 90.1452 45.9579 88.0113L45.1468 87.5706C44.0333 86.961 42.6877 86.1158 41.44 85.3688C40.1324 84.5859 38.82 83.8398 37.5452 83.2654C36.8211 82.9392 36.182 82.701 35.6183 82.5384C35.6286 82.5609 35.6392 82.5834 35.6491 82.6064C35.9295 83.2544 36.1319 84.3069 35.5383 85.3739C35.1491 86.0735 34.571 86.4865 34.0834 86.7332C34.2825 87.3846 34.2943 88.1655 33.9179 88.9506C33.5616 89.6939 32.9827 90.1588 32.537 90.44L32.355 90.5499C31.8617 90.8341 31.3696 90.9793 30.9051 91.0365C31.0262 91.2904 31.1779 91.5746 31.3711 91.8973C32.5037 93.7891 34.8936 96.7668 40.2029 102.356L40.5071 102.668C40.5981 102.758 40.6799 102.837 40.7566 102.91C40.891 103.038 41.0951 103.229 41.275 103.415C41.7255 103.883 42.0689 104.363 42.5177 105.118C45.1126 109.486 46.7551 112.144 47.8513 113.704C48.4076 114.495 48.7416 114.885 48.9193 115.055C49.1661 115.292 48.81 114.823 48.0002 114.823V120C46.7197 120 45.8114 119.248 45.3334 118.789C44.7862 118.263 44.2221 117.542 43.616 116.68C42.3873 114.931 40.6464 112.103 38.0673 107.762C37.73 107.194 37.6197 107.082 37.5484 107.008C37.4675 106.924 37.3937 106.856 37.1831 106.655C36.9913 106.472 36.7527 106.24 36.4496 105.921C31.1445 100.336 28.3875 96.9921 26.9294 94.5568C26.1704 93.289 25.734 92.2217 25.4731 91.1795C25.2315 90.2144 25.1543 89.2772 25.0733 88.6142L25.0567 88.4672C25.0193 88.1017 24.9974 87.5866 25.1266 87.0568C25.2072 86.7263 25.379 86.251 25.7695 85.8068C25.8265 85.7419 25.8864 85.6807 25.9478 85.6225C25.7871 85.1781 25.697 84.653 25.77 84.0664L25.7961 83.8785C25.9442 82.9129 26.4181 81.2809 28.1178 80.6836C28.1321 80.4635 28.1725 80.2308 28.2497 79.991C28.4647 79.3238 28.882 78.8547 29.2814 78.554L29.44 78.4377ZM32.9101 79.6629C32.9111 79.664 32.9123 79.665 32.9133 79.6661C32.8799 79.6239 32.8714 79.6217 32.9101 79.6629Z" fill="#023939"/>
<path fill-rule="evenodd" clip-rule="evenodd" d="M48.0002 117.411C47.1436 117.602 45.4668 115.149 40.2927 106.44C39.5066 105.117 39.3857 105.254 38.3265 104.138C27.7121 92.9645 28.0329 91.4945 27.6425 88.2998C27.3577 85.9706 29.4461 89.2387 31.0631 88.307C33.315 87.0096 28.1392 85.9904 28.3388 84.3858C28.74 81.1606 31.435 84.9953 32.7295 84.5048C35.0682 83.6182 29.7969 81.4054 30.8381 80.6216C35.0477 77.4526 42.1655 82.9876 46.39 85.3002C55.106 90.0725 58.5101 89.5154 58.3531 90.3526C58.0079 92.1936 56.031 98.5921 53.8532 104.706C51.5775 111.094 49.0823 117.171 48.0002 117.411Z" fill="#FDAE49"/>
</g>
<defs>
<clipPath id="clip0_16597_1737">
<rect width="184" height="184" fill="white"/>
</clipPath>
</defs>
</svg>
